<svg xmlns="http://www.w3.org/2000/svg" xmlns:xlink="http://www.w3.org/1999/xlink" width="31" height="48" viewBox="0 0 31 48"><defs><style>.a{fill:#fff;}.b,.e{fill:#e61938;}.c{clip-path:url(#a);}.d{clip-path:url(#b);}.e{font-size:20px;font-family:Sion-Medium, Sion;font-weight:500;letter-spacing:0.1em;}</style><clipPath id="a"><rect class="a" width="31" height="9" transform="translate(1698 106)"/></clipPath><clipPath id="b"><rect class="a" width="24" height="150" transform="translate(1756 103)"/></clipPath></defs><g transform="translate(-9 -5)"><path class="b" d="M17.733,5A3.772,3.772,0,0,0,14,8.733V29.889A3.125,3.125,0,0,0,17.111,33H35.467a.97.97,0,0,0,.933-.933V11.533a.9.9,0,0,0-.933-.933A2.067,2.067,0,0,1,33.6,8.733a2.068,2.068,0,0,1,1.867-1.867.933.933,0,0,0,0-1.867Zm0,1.867H32.248a3.639,3.639,0,0,0,0,3.733H17.733a2.067,2.067,0,0,1-1.867-1.867A2.068,2.068,0,0,1,17.733,6.866Zm-1.867,5.085a3.675,3.675,0,0,0,1.867.515h5.6v7.156a.933.933,0,0,0,1.468.758l2.576-1.808,2.576,1.808a.934.934,0,0,0,1.468-.758V12.466h3.111V31.133H17.111a1.222,1.222,0,0,1-1.244-1.244Zm9.333.515h4.356v5.357l-1.643-1.147a.934.934,0,0,0-1.07,0L25.2,17.823Z"/></g><g class="c" transform="translate(-1698 -67)"><g class="d" transform="translate(-54)"><text class="e" transform="translate(1775 244) rotate(-90)"><tspan x="0" y="0">CATÁLOGO</tspan></text></g></g></svg>