<svg xmlns="http://www.w3.org/2000/svg" width="260" height="218.636" viewBox="0 0 260 218.636"><defs><style>.a{fill:#fff;}</style></defs><g transform="translate(-6 -13)"><path class="a" d="M23.727,13A17.822,17.822,0,0,0,6,30.727V178.455a17.822,17.822,0,0,0,17.727,17.727h85.682v23.636h-8.864a5.909,5.909,0,1,0,0,11.818h70.909a5.909,5.909,0,1,0,0-11.818h-8.864V196.182h85.682A17.822,17.822,0,0,0,266,178.455V30.727A17.822,17.822,0,0,0,248.273,13Zm0,11.818H248.273a5.77,5.77,0,0,1,5.909,5.909V148.909H17.818V30.727A5.77,5.77,0,0,1,23.727,24.818ZM17.818,160.727H254.182v17.727a5.77,5.77,0,0,1-5.909,5.909H23.727a5.77,5.77,0,0,1-5.909-5.909ZM136,166.636a5.909,5.909,0,1,0,5.909,5.909A5.907,5.907,0,0,0,136,166.636Zm-14.773,29.545h29.545v23.636H121.227Z" transform="translate(0 0)"/></g></svg>