<?xml version="1.0" encoding="utf-8"?>
<!-- Generator: Adobe Illustrator 19.0.0, SVG Export Plug-In . SVG Version: 6.00 Build 0)  -->
<svg version="1.1" id="Capa_2" xmlns="http://www.w3.org/2000/svg" xmlns:xlink="http://www.w3.org/1999/xlink" x="0px" y="0px"
	 viewBox="608.5 21.9 550.9 518.2" style="enable-background:new 608.5 21.9 550.9 518.2;" xml:space="preserve">
<style type="text/css">
	.st0{fill:#FFFFFF;}
</style>
<g>
	<g transform="translate(1280.638 700.889)">
		<rect x="-631.9" y="-666.9" class="st0" width="26.5" height="7.3"/>
	</g>
	<g transform="translate(1370.595 700.966)">
		<rect x="-631.9" y="-666.9" class="st0" width="7.2" height="7.2"/>
	</g>
	<g transform="translate(1441.233 700.889)">
		<rect x="-631.9" y="-666.9" class="st0" width="26.5" height="7.3"/>
	</g>
	<g transform="translate(1521.53 700.889)">
		<rect x="-631.9" y="-666.9" class="st0" width="26.5" height="7.3"/>
	</g>
	<g transform="translate(1611.488 700.966)">
		<rect x="-631.9" y="-666.9" class="st0" width="7.2" height="7.2"/>
	</g>
	<g transform="translate(1682.124 698.997)">
		<path class="st0" d="M-618.7-662.9L-618.7-662.9c-2.6,0-5-1.6-5.9-4h-7.3c1.3,7.3,8.3,12.2,15.6,10.9c5.5-1,9.9-5.3,10.9-10.9
			h-7.3C-613.7-664.5-616.1-662.9-618.7-662.9"/>
	</g>
	<g transform="translate(1759.946 688.829)">
		<path class="st0" d="M-600.5-666.9h-31.5v31.5h10.2v-21.3h21.3V-666.9z"/>
	</g>
	<g transform="translate(1250.15 770.506)">
		<rect x="-631.9" y="-666.9" class="st0" width="7.2" height="7.2"/>
	</g>
	<g transform="translate(1320.787 770.429)">
		<rect x="-631.9" y="-666.9" class="st0" width="26.5" height="7.3"/>
	</g>
	<g transform="translate(1398.607 758.368)">
		<path class="st0" d="M-600.5-666.9h-31.5v31.5h10.2v-21.3h21.3V-666.9z"/>
	</g>
	<g transform="translate(1491.042 770.506)">
		<rect x="-631.9" y="-666.9" class="st0" width="7.2" height="7.2"/>
	</g>
	<g transform="translate(1561.679 770.429)">
		<rect x="-631.9" y="-666.9" class="st0" width="26.5" height="7.3"/>
	</g>
	<g transform="translate(1641.976 770.429)">
		<rect x="-631.9" y="-666.9" class="st0" width="26.5" height="7.3"/>
	</g>
	<g transform="translate(1731.934 770.506)">
		<rect x="-631.9" y="-666.9" class="st0" width="7.2" height="7.2"/>
	</g>
	<g transform="translate(1280.638 838.076)">
		<path class="st0" d="M-618.7-662.9L-618.7-662.9c-2.6,0-5-1.6-5.9-4h-7.3c1.3,7.3,8.3,12.2,15.6,10.9c5.5-1,9.9-5.3,10.9-10.9
			h-7.3C-613.7-664.5-616.1-662.9-618.7-662.9"/>
	</g>
	<g transform="translate(1360.935 839.968)">
		<rect x="-631.9" y="-666.9" class="st0" width="26.5" height="7.3"/>
	</g>
	<g transform="translate(1438.757 827.908)">
		<path class="st0" d="M-600.5-666.9h-31.5v31.5h10.2v-21.3h21.3L-600.5-666.9L-600.5-666.9z"/>
	</g>
	<g transform="translate(1521.53 839.968)">
		<rect x="-631.9" y="-666.9" class="st0" width="26.5" height="7.3"/>
	</g>
	<g transform="translate(1601.827 838.076)">
		<path class="st0" d="M-618.7-662.9L-618.7-662.9c-2.6,0-5-1.6-5.9-4h-7.3c1.3,7.3,8.3,12.2,15.6,10.9c5.6-1,9.9-5.3,10.9-10.9
			h-7.3C-613.7-664.5-616.1-662.9-618.7-662.9"/>
	</g>
	<g transform="translate(1691.785 840.045)">
		<rect x="-631.9" y="-666.9" class="st0" width="7.2" height="7.2"/>
	</g>
	<g transform="translate(1762.423 838.076)">
		<path class="st0" d="M-618.7-662.9L-618.7-662.9c-2.6,0-5-1.6-5.9-4h-7.3c1.3,7.3,8.3,12.2,15.6,10.9c5.6-1,9.9-5.3,10.9-10.9
			h-7.3C-613.7-664.5-616.1-662.9-618.7-662.9"/>
	</g>
	<g transform="translate(1240.488 907.615)">
		<path class="st0" d="M-618.7-662.9L-618.7-662.9c-2.6,0-5-1.6-5.9-4h-7.3c1.3,7.3,8.3,12.2,15.6,10.9c5.5-1,9.9-5.3,10.9-10.9
			h-7.3C-613.7-664.5-616.1-662.9-618.7-662.9"/>
	</g>
	<g transform="translate(1320.788 907.615)">
		<path class="st0" d="M-618.7-662.9L-618.7-662.9c-2.6,0-5-1.6-5.9-4h-7.3c1.3,7.3,8.3,12.2,15.6,10.9c5.6-1,9.9-5.3,10.9-10.9
			h-7.3C-613.7-664.5-616.1-662.9-618.7-662.9"/>
	</g>
	<g transform="translate(1410.744 909.585)">
		<rect x="-631.9" y="-666.9" class="st0" width="7.2" height="7.2"/>
	</g>
	<g transform="translate(1481.381 907.615)">
		<path class="st0" d="M-618.7-662.9L-618.7-662.9c-2.6,0-5-1.6-5.9-4h-7.3c1.3,7.3,8.3,12.2,15.6,10.9c5.6-1,9.9-5.3,10.9-10.9
			h-7.3C-613.7-664.5-616.1-662.9-618.7-662.9"/>
	</g>
	<g transform="translate(1571.339 909.585)">
		<rect x="-631.9" y="-666.9" class="st0" width="7.2" height="7.2"/>
	</g>
	<g transform="translate(1641.977 907.615)">
		<path class="st0" d="M-618.7-662.9L-618.7-662.9c-2.6,0-5-1.6-5.9-4h-7.3c1.3,7.3,8.3,12.2,15.6,10.9c5.6-1,9.9-5.3,10.9-10.9
			h-7.3C-613.7-664.5-616.1-662.9-618.7-662.9"/>
	</g>
	<g transform="translate(1722.274 909.508)">
		<rect x="-631.9" y="-666.9" class="st0" width="26.5" height="7.3"/>
	</g>
	<g transform="translate(1280.638 979.047)">
		<rect x="-631.9" y="-666.9" class="st0" width="26.5" height="7.3"/>
	</g>
	<g transform="translate(1358.458 966.986)">
		<path class="st0" d="M-600.5-666.9h-31.5v31.5h10.2v-21.3h21.3L-600.5-666.9L-600.5-666.9z"/>
	</g>
	<g transform="translate(1441.233 979.047)">
		<rect x="-631.9" y="-666.9" class="st0" width="26.5" height="7.3"/>
	</g>
	<g transform="translate(1521.53 979.047)">
		<rect x="-631.9" y="-666.9" class="st0" width="26.5" height="7.3"/>
	</g>
	<g transform="translate(1599.35 966.986)">
		<path class="st0" d="M-600.5-666.9h-31.5v31.5h10.2v-21.3h21.3L-600.5-666.9L-600.5-666.9z"/>
	</g>
	<g transform="translate(1682.125 979.047)">
		<rect x="-631.9" y="-666.9" class="st0" width="26.5" height="7.3"/>
	</g>
	<g transform="translate(1759.946 966.986)">
		<path class="st0" d="M-600.5-666.9h-31.5v31.5h10.2v-21.3h21.3V-666.9L-600.5-666.9z"/>
	</g>
	<g transform="translate(1240.489 1048.587)">
		<rect x="-631.9" y="-666.9" class="st0" width="26.5" height="7.3"/>
	</g>
	<g transform="translate(1320.788 1046.694)">
		<path class="st0" d="M-618.7-662.9L-618.7-662.9c-2.6,0-5-1.6-5.9-4h-7.3c1.3,7.3,8.3,12.2,15.6,10.9c5.6-1,9.9-5.3,10.9-10.9
			h-7.3C-613.7-664.5-616.1-662.9-618.7-662.9"/>
	</g>
	<g transform="translate(1401.084 1048.587)">
		<rect x="-631.9" y="-666.9" class="st0" width="26.5" height="7.3"/>
	</g>
	<g transform="translate(1481.381 1048.587)">
		<rect x="-631.9" y="-666.9" class="st0" width="26.5" height="7.3"/>
	</g>
	<g transform="translate(1571.339 1048.664)">
		<rect x="-631.9" y="-666.9" class="st0" width="7.2" height="7.2"/>
	</g>
	<g transform="translate(1651.636 1048.664)">
		<rect x="-631.9" y="-666.9" class="st0" width="7.2" height="7.2"/>
	</g>
	<g transform="translate(1722.274 1048.587)">
		<rect x="-631.9" y="-666.9" class="st0" width="26.5" height="7.3"/>
	</g>
	<g transform="translate(1290.298 1118.204)">
		<rect x="-631.9" y="-666.9" class="st0" width="7.2" height="7.2"/>
	</g>
	<g transform="translate(1360.935 1118.127)">
		<rect x="-631.9" y="-666.9" class="st0" width="26.5" height="7.3"/>
	</g>
	<g transform="translate(1438.757 1106.067)">
		<path class="st0" d="M-600.5-666.9h-31.5v31.5h10.2v-21.3h21.3L-600.5-666.9L-600.5-666.9z"/>
	</g>
	<g transform="translate(1521.53 1118.127)">
		<rect x="-631.9" y="-666.9" class="st0" width="26.5" height="7.3"/>
	</g>
	<g transform="translate(1601.827 1116.234)">
		<path class="st0" d="M-618.7-662.9L-618.7-662.9c-2.6,0-5-1.6-5.9-4h-7.3c1.3,7.3,8.3,12.2,15.6,10.9c5.6-1,9.9-5.3,10.9-10.9
			h-7.3C-613.7-664.5-616.1-662.9-618.7-662.9"/>
	</g>
	<g transform="translate(1691.785 1118.204)">
		<rect x="-631.9" y="-666.9" class="st0" width="7.2" height="7.2"/>
	</g>
	<g transform="translate(1772.083 1118.204)">
		<rect x="-631.9" y="-666.9" class="st0" width="7.2" height="7.2"/>
	</g>
	<g transform="translate(1240.489 1187.666)">
		<rect x="-631.9" y="-666.9" class="st0" width="26.5" height="7.3"/>
	</g>
	<g transform="translate(1320.787 1187.666)">
		<rect x="-631.9" y="-666.9" class="st0" width="26.5" height="7.3"/>
	</g>
	<g transform="translate(1410.744 1187.743)">
		<rect x="-631.9" y="-666.9" class="st0" width="7.2" height="7.2"/>
	</g>
	<g transform="translate(1478.904 1175.607)">
		<path class="st0" d="M-600.5-666.9h-31.5v31.5h10.2v-21.3h21.3L-600.5-666.9L-600.5-666.9z"/>
	</g>
	<g transform="translate(1561.678 1185.775)">
		<path class="st0" d="M-618.7-662.9L-618.7-662.9c-2.6,0-5-1.6-5.9-4h-7.3c1.3,7.3,8.3,12.2,15.6,10.9c5.5-1,9.9-5.3,10.9-10.9
			h-7.3C-613.7-664.5-616.1-662.9-618.7-662.9"/>
	</g>
	<g transform="translate(1639.5 1175.607)">
		<path class="st0" d="M-600.5-666.9h-31.5v31.5h10.2v-21.3h21.3L-600.5-666.9L-600.5-666.9z"/>
	</g>
	<g transform="translate(1731.934 1187.743)">
		<rect x="-631.9" y="-666.9" class="st0" width="7.2" height="7.2"/>
	</g>
</g>
</svg>
