<svg xmlns="http://www.w3.org/2000/svg" width="49.786" height="67.772" viewBox="0 0 49.786 67.772"><defs><style>.a{fill:#fff;}</style></defs><g transform="translate(-578.468 -116.02)"><rect class="a" width="33.021" height="9.136" transform="translate(586.851 116.02)"/><path class="a" d="M602.925,135.154a15.285,15.285,0,0,1,13.56,8.24h10.4a24.976,24.976,0,0,0-47.924,0h10.4A15.285,15.285,0,0,1,602.925,135.154Z" transform="translate(0.437 8.352)"/><path class="a" d="M603.362,153.12A15.287,15.287,0,0,1,588.2,139.734h-9.732a24.964,24.964,0,0,0,49.786,0h-9.732A15.287,15.287,0,0,1,603.362,153.12Z" transform="translate(0 20.978)"/></g></svg>