<svg xmlns="http://www.w3.org/2000/svg" width="34.407" height="34.435" viewBox="0 0 34.407 34.435"><defs><style>.a{fill:#fff;}</style></defs><path class="a" d="M49.877,16.135a1.355,1.355,0,0,0-1.359-.3l-31.9,12.781a1.243,1.243,0,0,0,0,2.315l13.334,5.132,5.082,13.334a1.241,1.241,0,0,0,1.157.805h0a1.241,1.241,0,0,0,1.157-.805L50.129,17.443A1.173,1.173,0,0,0,49.877,16.135Zm-32.1,13.636L46.808,18.148l-16.5,16.5ZM36.241,48.288l-4.83-12.579L47.865,19.255Z" transform="translate(-15.825 -15.765)"/></svg>