<?xml version="1.0" encoding="utf-8"?>
<!-- Generator: Adobe Illustrator 19.0.0, SVG Export Plug-In . SVG Version: 6.00 Build 0)  -->
<svg version="1.1" xmlns="http://www.w3.org/2000/svg" xmlns:xlink="http://www.w3.org/1999/xlink" x="0px" y="0px"
	 viewBox="659.2 215.7 130 130" style="enable-background:new 659.2 215.7 130 130;" xml:space="preserve">
<style type="text/css">
	.st0{display:none;}
	.st1{fill:#CFCFCF;}
</style>
<g id="Capa_1" class="st0">
</g>
<g id="Capa_2" class="st0">
</g>
<g id="Capa_3" class="st0">
</g>
<g id="Capa_4">
	<g transform="translate(919.204 3443.619)">
		<path class="st1" d="M-217-3174.8c0-5-5.2-6.8-9.7-6.8c-3.1,0-10.5,0.8-10.9,7.7c0,0.3,0.2,0.5,0.5,0.6c0,0,0,0,0.1,0h5.3
			c0.3,0,0.5-0.2,0.5-0.5c0.2-2.5,2.4-3,4.3-3c2.6,0,4,0.8,4,2.4c0,1.7-1.3,1.9-3.9,2.2c-0.7,0.1-1.4,0.2-2.1,0.3
			c-3.3,0.4-9.3,1.1-9.3,7.3c0,4.5,4.3,6.9,8.5,6.9c2.8,0.1,5.5-0.9,7.7-2.6c1.3-1.2,3.1-1.9,4.9-2c0.1,0,0.2-0.1,0.3-0.1
			c0.1-0.1,0.1-0.2,0.1-0.3c0-0.2-0.1-0.5-0.1-0.7L-217-3174.8z M-228.1-3162.5c-2.4,0-3.7-0.8-3.9-2.3c-0.3-2,1.7-2.8,3.5-3.1
			c0.6-0.1,1.1-0.2,1.7-0.2l0.1,0c1.2-0.1,2.3-0.3,3.5-0.7v2.7C-223.3-3163.5-226.2-3162.5-228.1-3162.5 M-239.9-3181v12
			c0,5.1-1.2,10.9-10.4,10.9h-4.3c-0.2,0-0.4-0.2-0.4-0.4v-5c0-0.2,0.2-0.4,0.4-0.4c0,0,0,0,0,0h4.8c3.1,0,3.7-1.9,3.7-5.3v-11.9
			c0-0.3,0.2-0.5,0.5-0.5h5.3C-240.2-3181.5-239.9-3181.3-239.9-3181 M-180.6-3174.3v15.7c0,0.3-0.2,0.5-0.5,0.5h-5.3
			c-0.3,0-0.5-0.2-0.5-0.5v-14.2c0-1.1-0.3-4.1-3.7-4.1c-3.2,0-3.6,2.6-3.6,4.1v14.2c0,0.3-0.2,0.5-0.5,0.5h-5.3
			c-0.3,0-0.5-0.2-0.5-0.5v-14.2c0-1.4-0.3-4.1-3.6-4.1c-3.4,0-3.7,2.9-3.7,4.1v14.2c0,0.3-0.2,0.5-0.5,0.5h-5.3
			c-0.3,0-0.5-0.2-0.5-0.5v-15.7c0-4.8,4.1-7.4,10.1-7.4c1.8,0,3.7,0.4,5.3,1.2c0.8,0.6,2,0.6,2.8,0c1.6-0.9,3.5-1.3,5.3-1.2
			C-184.7-3181.6-180.6-3179-180.6-3174.3 M-157.4-3174.8c0-5-5.2-6.8-9.7-6.8c-3.1,0-10.5,0.8-10.9,7.7c0,0.2,0,0.3,0.1,0.4
			c0.1,0.1,0.2,0.2,0.4,0.2h5.3c0.3,0,0.5-0.2,0.5-0.5c0.2-2.5,2.4-3,4.3-3c2.6,0,4,0.8,4,2.4c0,1.7-1.3,1.9-3.9,2.2
			c-0.7,0.1-1.4,0.2-2.1,0.3c-3.3,0.4-9.3,1.1-9.3,7.3c0,4.5,4.3,6.9,8.5,6.9c2.8,0.1,5.5-0.9,7.7-2.6c1.3-1.2,3.1-1.9,4.9-2
			c0.1,0,0.2-0.1,0.3-0.1c0.1-0.1,0.1-0.2,0.1-0.3c0-0.2-0.1-0.5-0.1-0.7L-157.4-3174.8z M-168.6-3162.5c-2.4,0-3.7-0.8-3.9-2.3
			c-0.3-2,1.7-2.8,3.5-3.1c0.6-0.1,1.1-0.2,1.7-0.2l0.1,0c1.2-0.1,2.3-0.3,3.5-0.7v2.7C-163.7-3163.5-166.6-3162.5-168.6-3162.5
			 M-139.6-3181.1v5c0,0.2-0.2,0.4-0.4,0.4h-4.8c-3.1,0-3.7,1.9-3.7,5.3v11.9c0,0.3-0.2,0.5-0.5,0.5h-5.3c-0.3,0-0.5-0.2-0.5-0.5
			v-12.1c0-5.1,1.2-10.9,10.4-10.9h4.3C-139.7-3181.5-139.6-3181.3-139.6-3181.1C-139.6-3181.1-139.6-3181.1-139.6-3181.1
			 M-135.1-3178.3c0.4-0.1,0.7-0.4,0.7-0.8c0-0.6-0.3-0.9-1-0.9h-1.1c0,0,0,0,0,0c0,0,0,0,0,0v3c0,0,0,0,0,0c0,0,0,0,0,0h0.3
			c0,0,0,0,0,0c0,0,0,0,0,0v-1.3h0.6l0.9,1.3c0,0,0,0,0,0h0.4c0,0,0,0,0,0c0,0,0,0,0,0c0,0,0,0,0,0L-135.1-3178.3z M-136.1-3179.7
			h0.7c0.4,0,0.7,0.2,0.7,0.5c0,0.3-0.2,0.5-0.7,0.5h-0.7V-3179.7z M-135.5-3181c-1.4,0-2.5,1.1-2.5,2.5c0,1.4,1.1,2.5,2.5,2.5
			s2.5-1.1,2.5-2.5C-133-3179.9-134.1-3181-135.5-3181 M-135.5-3176.4c-1.2,0-2.2-0.9-2.2-2.1c0-1.2,0.9-2.2,2.1-2.2
			c1.2,0,2.2,0.9,2.2,2.1c0,0,0,0,0,0C-133.4-3177.4-134.3-3176.4-135.5-3176.4C-135.5-3176.4-135.5-3176.4-135.5-3176.4"/>
		<path class="st1" d="M-238.4-3146.3h0.9v0.9h-0.9V-3146.3z M-238.4-3143.1l0.1-1.9h0.7l0.1,1.9v1.5h-0.9L-238.4-3143.1z"/>
		<path class="st1" d="M-236.5-3147.5h0.9v1.8h1.1v-1.8h0.9v4.7h-0.9v-2.1h-1.1v2.1h-0.9V-3147.5z"/>
		<path class="st1" d="M-231.8-3147.5h1.2l1.2,4.7h-1l-0.2-1h-1.2l-0.2,1h-1L-231.8-3147.5z M-231.7-3144.5h0.9l-0.5-2.1h0
			L-231.7-3144.5z"/>
		<path class="st1" d="M-226.9-3145.9c0-0.7-0.1-1-0.6-1c-0.5,0-0.6,0.5-0.6,1.8c0,1.4,0.2,1.7,0.6,1.7c0.3,0,0.6-0.2,0.6-1.2h0.9
			c0,1-0.2,1.9-1.5,1.9c-1.4,0-1.6-1-1.6-2.4s0.2-2.4,1.6-2.4c1.4,0,1.5,1,1.5,1.7L-226.9-3145.9z"/>
		<path class="st1" d="M-222.6-3147.5v0.8h-1.7v1.1h1.6v0.8h-1.6v1.3h1.7v0.8h-2.7v-4.7L-222.6-3147.5z"/>
		<path class="st1" d="M-222-3147.5h1.4l0.7,3.3h0l0.7-3.3h1.4v4.7h-0.9v-3.7h0l-0.8,3.7h-0.7l-0.8-3.7h0v3.7h-0.9V-3147.5z"/>
		<path class="st1" d="M-215.5-3147.6c1.4,0,1.6,1,1.6,2.4s-0.2,2.4-1.6,2.4s-1.6-1-1.6-2.4
			C-217.1-3146.5-216.9-3147.6-215.5-3147.6 M-215.5-3143.4c0.6,0,0.6-0.5,0.6-1.7s-0.1-1.7-0.6-1.7s-0.6,0.5-0.6,1.7
			C-216.1-3143.9-216.1-3143.4-215.5-3143.4"/>
		<path class="st1" d="M-212.4-3144.2v0.1c0,0.4,0.1,0.7,0.6,0.7c0.3,0,0.6-0.2,0.6-0.5c0,0,0,0,0-0.1c0-0.4-0.2-0.6-0.8-0.8
			c-0.8-0.3-1.2-0.6-1.2-1.4c-0.1-0.7,0.5-1.3,1.2-1.4c0.1,0,0.2,0,0.3,0c0.8,0,1.5,0.4,1.5,1.3v0.1h-0.9c0-0.4-0.2-0.7-0.5-0.7
			c-0.3,0-0.5,0.2-0.5,0.4c0,0,0,0.1,0,0.1c0,0.3,0.1,0.5,0.5,0.6l0.7,0.3c0.6,0.1,0.9,0.7,0.9,1.2c0,1-0.6,1.4-1.6,1.4
			c-1.1,0-1.5-0.5-1.5-1.4v-0.2L-212.4-3144.2z"/>
		<path class="st1" d="M-208-3147.5h2.6v0.8h-1.7v1.1h1.6v0.8h-1.6v2h-0.9V-3147.5z"/>
		<path class="st1" d="M-204.1-3147.5h1.2l1.2,4.7h-1l-0.2-1h-1.2l-0.2,1h-1L-204.1-3147.5z M-204-3144.5h0.9l-0.5-2.1h0
			L-204-3144.5z"/>
		<path class="st1" d="M-201.2-3147.5h1.4l0.7,3.3h0l0.7-3.3h1.4v4.7h-0.9v-3.7h0l-0.8,3.7h-0.7l-0.8-3.7h0v3.7h-0.9L-201.2-3147.5z
			"/>
		<rect x="-196.2" y="-3147.5" class="st1" width="0.9" height="4.7"/>
		<path class="st1" d="M-194.4-3142.8v-4.7h0.9v3.9h1.7v0.8L-194.4-3142.8z"/>
		<rect x="-191.2" y="-3147.5" class="st1" width="0.9" height="4.7"/>
		<path class="st1" d="M-188.5-3147.5h1.2l1.2,4.7h-1l-0.2-1h-1.2l-0.2,1h-1L-188.5-3147.5z M-188.4-3144.5h0.9l-0.5-2.1h0
			L-188.4-3144.5z"/>
		<path class="st1" d="M-184.9-3144.2v0.1c0,0.4,0.1,0.7,0.6,0.7c0.3,0,0.6-0.2,0.6-0.5c0,0,0,0,0-0.1c0-0.4-0.2-0.6-0.8-0.8
			c-0.8-0.3-1.2-0.6-1.2-1.4c-0.1-0.7,0.5-1.3,1.2-1.4c0.1,0,0.2,0,0.3,0c0.8,0,1.5,0.4,1.5,1.3v0.1h-0.9c0-0.4-0.2-0.7-0.5-0.7
			c-0.3,0-0.5,0.2-0.5,0.4c0,0,0,0.1,0,0.1c0,0.3,0.1,0.5,0.5,0.6l0.7,0.3c0.6,0.1,0.9,0.7,0.9,1.2c0,1-0.6,1.4-1.6,1.4
			c-1.1,0-1.5-0.5-1.5-1.4v-0.2L-184.9-3144.2z"/>
		<path class="st1" d="M-180.4-3147.5h2.6v0.8h-1.7v1.1h1.6v0.8h-1.6v2h-0.9L-180.4-3147.5z"/>
		<path class="st1" d="M-174.6-3147.5v0.8h-1.7v1.1h1.6v0.8h-1.6v1.3h1.7v0.8h-2.7v-4.7L-174.6-3147.5z"/>
		<path class="st1" d="M-174-3142.8v-4.7h0.9v3.9h1.7v0.8L-174-3142.8z"/>
		<rect x="-170.7" y="-3147.5" class="st1" width="0.9" height="4.7"/>
		<path class="st1" d="M-167-3145.9c0-0.7-0.1-1-0.6-1c-0.5,0-0.6,0.5-0.6,1.8c0,1.4,0.2,1.7,0.6,1.7c0.3,0,0.6-0.2,0.6-1.2h0.9
			c0,1-0.3,1.9-1.5,1.9c-1.4,0-1.6-1-1.6-2.4s0.2-2.4,1.6-2.4c1.4,0,1.5,1,1.5,1.7L-167-3145.9z"/>
		<path class="st1" d="M-162.7-3147.5v0.8h-1.7v1.1h1.6v0.8h-1.6v1.3h1.7v0.8h-2.7v-4.7L-162.7-3147.5z"/>
		<path class="st1" d="M-161.3-3144.2v0.1c0,0.4,0.1,0.7,0.6,0.7c0.3,0,0.6-0.2,0.6-0.5c0,0,0,0,0-0.1c0-0.4-0.2-0.6-0.8-0.8
			c-0.8-0.3-1.2-0.6-1.2-1.4c-0.1-0.7,0.5-1.3,1.2-1.4c0.1,0,0.2,0,0.3,0c0.8,0,1.5,0.4,1.5,1.3v0.1h-0.9c0-0.4-0.2-0.7-0.5-0.7
			c-0.3,0-0.5,0.2-0.5,0.4c0,0,0,0.1,0,0.1c0,0.3,0.1,0.5,0.5,0.6l0.7,0.3c0.6,0.1,0.9,0.7,0.9,1.2c0,1-0.6,1.4-1.6,1.4
			c-1.1,0-1.5-0.5-1.5-1.4v-0.2L-161.3-3144.2z"/>
		<path class="st1" d="M-158.2-3144.1l-0.1-1.9v-1.5h0.9v1.5l-0.1,1.9H-158.2z M-157.4-3142.8h-0.9v-0.9h0.9V-3142.8z"/>
		<path class="st1" d="M-238.4-3146.3h0.9v0.9h-0.9V-3146.3z M-238.4-3143.1l0.1-1.9h0.7l0.1,1.9v1.5h-0.9L-238.4-3143.1z"/>
		<path class="st1" d="M-236.5-3147.5h0.9v1.8h1.1v-1.8h0.9v4.7h-0.9v-2.1h-1.1v2.1h-0.9V-3147.5z"/>
		<path class="st1" d="M-231.8-3147.5h1.2l1.2,4.7h-1l-0.2-1h-1.2l-0.2,1h-1L-231.8-3147.5z M-231.7-3144.5h0.9l-0.5-2.1h0
			L-231.7-3144.5z"/>
		<path class="st1" d="M-226.9-3145.9c0-0.7-0.1-1-0.6-1c-0.5,0-0.6,0.5-0.6,1.8c0,1.4,0.2,1.7,0.6,1.7c0.3,0,0.6-0.2,0.6-1.2h0.9
			c0,1-0.2,1.9-1.5,1.9c-1.4,0-1.6-1-1.6-2.4s0.2-2.4,1.6-2.4c1.4,0,1.5,1,1.5,1.7L-226.9-3145.9z"/>
		<path class="st1" d="M-222.6-3147.5v0.8h-1.7v1.1h1.6v0.8h-1.6v1.3h1.7v0.8h-2.7v-4.7L-222.6-3147.5z"/>
		<path class="st1" d="M-222-3147.5h1.4l0.7,3.3h0l0.7-3.3h1.4v4.7h-0.9v-3.7h0l-0.8,3.7h-0.7l-0.8-3.7h0v3.7h-0.9V-3147.5z"/>
		<path class="st1" d="M-215.5-3147.6c1.4,0,1.6,1,1.6,2.4s-0.2,2.4-1.6,2.4s-1.6-1-1.6-2.4
			C-217.1-3146.5-216.9-3147.6-215.5-3147.6 M-215.5-3143.4c0.6,0,0.6-0.5,0.6-1.7s-0.1-1.7-0.6-1.7s-0.6,0.5-0.6,1.7
			C-216.1-3143.9-216.1-3143.4-215.5-3143.4"/>
		<path class="st1" d="M-212.4-3144.2v0.1c0,0.4,0.1,0.7,0.6,0.7c0.3,0,0.6-0.2,0.6-0.5c0,0,0,0,0-0.1c0-0.4-0.2-0.6-0.8-0.8
			c-0.8-0.3-1.2-0.6-1.2-1.4c-0.1-0.7,0.5-1.3,1.2-1.4c0.1,0,0.2,0,0.3,0c0.8,0,1.5,0.4,1.5,1.3v0.1h-0.9c0-0.4-0.2-0.7-0.5-0.7
			c-0.3,0-0.5,0.2-0.5,0.4c0,0,0,0.1,0,0.1c0,0.3,0.1,0.5,0.5,0.6l0.7,0.3c0.6,0.1,0.9,0.7,0.9,1.2c0,1-0.6,1.4-1.6,1.4
			c-1.1,0-1.5-0.5-1.5-1.4v-0.2L-212.4-3144.2z"/>
		<path class="st1" d="M-208-3147.5h2.6v0.8h-1.7v1.1h1.6v0.8h-1.6v2h-0.9V-3147.5z"/>
		<path class="st1" d="M-204.1-3147.5h1.2l1.2,4.7h-1l-0.2-1h-1.2l-0.2,1h-1L-204.1-3147.5z M-204-3144.5h0.9l-0.5-2.1h0
			L-204-3144.5z"/>
		<path class="st1" d="M-201.2-3147.5h1.4l0.7,3.3h0l0.7-3.3h1.4v4.7h-0.9v-3.7h0l-0.8,3.7h-0.7l-0.8-3.7h0v3.7h-0.9L-201.2-3147.5z
			"/>
		<rect x="-196.2" y="-3147.5" class="st1" width="0.9" height="4.7"/>
		<path class="st1" d="M-194.4-3142.8v-4.7h0.9v3.9h1.7v0.8L-194.4-3142.8z"/>
		<rect x="-191.2" y="-3147.5" class="st1" width="0.9" height="4.7"/>
		<path class="st1" d="M-188.5-3147.5h1.2l1.2,4.7h-1l-0.2-1h-1.2l-0.2,1h-1L-188.5-3147.5z M-188.4-3144.5h0.9l-0.5-2.1h0
			L-188.4-3144.5z"/>
		<path class="st1" d="M-184.9-3144.2v0.1c0,0.4,0.1,0.7,0.6,0.7c0.3,0,0.6-0.2,0.6-0.5c0,0,0,0,0-0.1c0-0.4-0.2-0.6-0.8-0.8
			c-0.8-0.3-1.2-0.6-1.2-1.4c-0.1-0.7,0.5-1.3,1.2-1.4c0.1,0,0.2,0,0.3,0c0.8,0,1.5,0.4,1.5,1.3v0.1h-0.9c0-0.4-0.2-0.7-0.5-0.7
			c-0.3,0-0.5,0.2-0.5,0.4c0,0,0,0.1,0,0.1c0,0.3,0.1,0.5,0.5,0.6l0.7,0.3c0.6,0.1,0.9,0.7,0.9,1.2c0,1-0.6,1.4-1.6,1.4
			c-1.1,0-1.5-0.5-1.5-1.4v-0.2L-184.9-3144.2z"/>
		<path class="st1" d="M-180.4-3147.5h2.6v0.8h-1.7v1.1h1.6v0.8h-1.6v2h-0.9L-180.4-3147.5z"/>
		<path class="st1" d="M-174.6-3147.5v0.8h-1.7v1.1h1.6v0.8h-1.6v1.3h1.7v0.8h-2.7v-4.7L-174.6-3147.5z"/>
		<path class="st1" d="M-174-3142.8v-4.7h0.9v3.9h1.7v0.8L-174-3142.8z"/>
		<rect x="-170.7" y="-3147.5" class="st1" width="0.9" height="4.7"/>
		<path class="st1" d="M-167-3145.9c0-0.7-0.1-1-0.6-1c-0.5,0-0.6,0.5-0.6,1.8c0,1.4,0.2,1.7,0.6,1.7c0.3,0,0.6-0.2,0.6-1.2h0.9
			c0,1-0.3,1.9-1.5,1.9c-1.4,0-1.6-1-1.6-2.4s0.2-2.4,1.6-2.4c1.4,0,1.5,1,1.5,1.7L-167-3145.9z"/>
		<path class="st1" d="M-162.7-3147.5v0.8h-1.7v1.1h1.6v0.8h-1.6v1.3h1.7v0.8h-2.7v-4.7L-162.7-3147.5z"/>
		<path class="st1" d="M-161.3-3144.2v0.1c0,0.4,0.1,0.7,0.6,0.7c0.3,0,0.6-0.2,0.6-0.5c0,0,0,0,0-0.1c0-0.4-0.2-0.6-0.8-0.8
			c-0.8-0.3-1.2-0.6-1.2-1.4c-0.1-0.7,0.5-1.3,1.2-1.4c0.1,0,0.2,0,0.3,0c0.8,0,1.5,0.4,1.5,1.3v0.1h-0.9c0-0.4-0.2-0.7-0.5-0.7
			c-0.3,0-0.5,0.2-0.5,0.4c0,0,0,0.1,0,0.1c0,0.3,0.1,0.5,0.5,0.6l0.7,0.3c0.6,0.1,0.9,0.7,0.9,1.2c0,1-0.6,1.4-1.6,1.4
			c-1.1,0-1.5-0.5-1.5-1.4v-0.2L-161.3-3144.2z"/>
		<path class="st1" d="M-158.2-3144.1l-0.1-1.9v-1.5h0.9v1.5l-0.1,1.9H-158.2z M-157.4-3142.8h-0.9v-0.9h0.9V-3142.8z"/>
	</g>
</g>
<g id="Capa_5" class="st0">
</g>
</svg>
