<?xml version="1.0" encoding="utf-8"?>
<!-- Generator: Adobe Illustrator 19.0.0, SVG Export Plug-In . SVG Version: 6.00 Build 0)  -->
<svg version="1.1" xmlns="http://www.w3.org/2000/svg" xmlns:xlink="http://www.w3.org/1999/xlink" x="0px" y="0px"
	 viewBox="659.2 215.7 130 130" style="enable-background:new 659.2 215.7 130 130;" xml:space="preserve">
<style type="text/css">
	.st0{display:none;}
	.st1{fill:#CFCFCF;}
</style>
<g id="Capa_1" class="st0">
</g>
<g id="Capa_2">
	<g transform="translate(308.638 3508.222)">
		<path class="st1" d="M435-3241.7v-0.3l0-0.3l0-0.3l0-0.3l0-0.3l0-0.3l0-0.3l0.1-0.3l0.1-0.3l0.1-0.3l0.1-0.3l0.1-0.3l0.1-0.3
			l0.1-0.3l0.1-0.3l0.1-0.3l0.1-0.3l0.1-0.3l0.1-0.3l0.2-0.3l0.2-0.3l0.1-0.3l0.2-0.3l0.2-0.3l0.2-0.3l0.2-0.3l0.2-0.3l0.2-0.3
			l0.2-0.2l0.2-0.3l0.2-0.3l0.2-0.2l0.2-0.2l0.2-0.2l0.2-0.2l0.3-0.2l0.2-0.2l0.3-0.2l0.3-0.2l0.3-0.2l0.3-0.2l0.2-0.2l0.3-0.2
			l0.3-0.2l0.3-0.2l0.3-0.1l0.3-0.1l0.3-0.1l0.3-0.1l0.3-0.1l0.3-0.1l0.3-0.1l0.3-0.1l0.3-0.1l0.3-0.1l0.3-0.1l0.3-0.1l0.3,0
			l0.3-0.1l0.3,0l0.3,0l0.3,0l0.3,0h0.3h7.3v-10.4h-7.3l-0.6,0h-0.6l-0.6,0l-0.6,0l-0.6,0.1l-0.6,0.1l-0.6,0.1l-0.6,0.1l-0.6,0.1
			l-0.6,0.1l-0.6,0.1l-0.6,0.2l-0.5,0.2l-0.5,0.2l-0.5,0.2l-0.5,0.2l-0.5,0.2l-0.5,0.2l-0.5,0.3l-0.5,0.2l-0.5,0.3l-0.5,0.3
			l-0.5,0.3l-0.5,0.3l-0.5,0.3l-0.5,0.3l-0.5,0.3l-0.5,0.4l-0.5,0.4l-0.5,0.4l-0.4,0.4l-0.4,0.4l-0.4,0.4l-0.4,0.4l-0.4,0.4
			l-0.4,0.4l-0.4,0.4l-0.3,0.5l-0.3,0.5l-0.3,0.5l-0.3,0.5l-0.3,0.5l-0.3,0.5l-0.3,0.5l-0.3,0.5l-0.3,0.5l-0.2,0.5l-0.2,0.5
			l-0.2,0.5l-0.2,0.5l-0.2,0.5l-0.2,0.5l-0.2,0.5l-0.1,0.5l-0.1,0.6l-0.1,0.6l-0.1,0.6l-0.1,0.6l-0.1,0.6l-0.1,0.6l-0.1,0.6l0,0.6
			v0.6l0,0.6v23.5H435l0-10.3L435-3241.7z"/>
		<path class="st1" d="M422.9-3241.6v23.4H412v-11.3h0v-12.6l0-0.3l0-0.3l0-0.3l0-0.3l0-0.3l-0.1-0.3l0-0.3l-0.1-0.3l-0.1-0.3
			l-0.1-0.3l-0.1-0.3l-0.1-0.3l-0.1-0.3l-0.1-0.3l-0.1-0.3l-0.1-0.3l-0.1-0.3l-0.1-0.3l-0.1-0.3l-0.2-0.3l-0.2-0.3l-0.2-0.3
			l-0.2-0.3l-0.2-0.3l-0.2-0.3l-0.2-0.3l-0.2-0.3l-0.2-0.3l-0.2-0.2l-0.2-0.3l-0.2-0.2l-0.2-0.3l-0.2-0.2l-0.3-0.2l-0.2-0.2
			l-0.3-0.2l-0.3-0.2l-0.3-0.2l-0.3-0.2l-0.3-0.2l-0.3-0.2l-0.3-0.2l-0.3-0.2l-0.3-0.2l-0.3-0.1l-0.3-0.1l-0.3-0.1l-0.3-0.1
			l-0.3-0.1l-0.3-0.1l-0.3-0.1l-0.3-0.1l-0.3-0.1l-0.3-0.1l-0.3-0.1l-0.3-0.1l-0.3-0.1l-0.3,0l-0.3,0l-0.3,0l-0.3,0h-0.3l-0.3,0
			l-0.4,0h-0.3l-0.3,0l-0.3,0l-0.3,0l-0.3,0l-0.3,0.1l-0.3,0.1l-0.3,0.1l-0.3,0.1l-0.3,0.1l-0.3,0.1l-0.3,0.1l-0.3,0.1l-0.3,0.1
			l-0.3,0.1l-0.3,0.1l-0.3,0.1l-0.3,0.1l-0.3,0.2l-0.3,0.2l-0.3,0.2l-0.3,0.2l-0.3,0.2l-0.2,0.2l-0.3,0.2l-0.3,0.2l-0.3,0.2
			l-0.2,0.2l-0.3,0.2l-0.2,0.2l-0.2,0.3l-0.2,0.2l-0.2,0.3l-0.2,0.2l-0.2,0.3l-0.2,0.3l-0.2,0.3l-0.2,0.3l-0.2,0.3l-0.2,0.3
			l-0.2,0.3l-0.2,0.3l-0.2,0.3l-0.1,0.3l-0.1,0.3l-0.1,0.3l-0.1,0.3l-0.1,0.3l-0.1,0.3l-0.1,0.3l-0.1,0.3l-0.1,0.3l-0.1,0.3
			l-0.1,0.3l-0.1,0.3l0,0.3l-0.1,0.3l0,0.3l0,0.3l0,0.3l0,0.3l0,0.3v0.7l0,0.3l0,0.3l0,0.3l0,0.3l0,0.3l0.1,0.3l0,0.3l0.1,0.3
			l0.1,0.3l0.1,0.3l0.1,0.3l0.1,0.3l0.1,0.3l0.1,0.3l0.1,0.3l0.1,0.3l0.1,0.3l0.1,0.3l0.1,0.3l0.2,0.3l0.2,0.3l0.2,0.3l0.2,0.3
			l0.2,0.3l0.2,0.3l0.2,0.3l0.2,0.3l0.2,0.3l0.2,0.2l0.2,0.3l0.2,0.2l0.2,0.3l0.2,0.2l0.3,0.2l0.2,0.2l0.3,0.2l0.3,0.2l0.3,0.2
			l0.2,0.2l0.3,0.2l0.3,0.2l0.3,0.2l0.3,0.2l0.3,0.1l0.3,0.1l0.3,0.1l0.3,0.1l0.3,0.1l0.3,0.1l0.3,0.1l0.3,0.1l0.3,0.1l0.3,0.1
			l0.3,0.1l0.3,0.1l0.3,0.1l0.3,0.1l0.3,0l0.3,0l0.3,0l0.3,0l0.3,0l0.4,0h10.1v10.2h-10.6l-0.6,0l-0.6,0l-0.6-0.1l-0.6-0.1l-0.6-0.1
			l-0.6-0.1l-0.6-0.1l-0.6-0.1l-0.6-0.1l-0.6-0.1l-0.6-0.1l-0.5-0.2l-0.5-0.2l-0.5-0.2l-0.5-0.2l-0.5-0.2l-0.5-0.2l-0.5-0.2
			l-0.5-0.3l-0.5-0.3l-0.5-0.3l-0.5-0.3l-0.5-0.3l-0.5-0.3l-0.5-0.3l-0.5-0.4l-0.5-0.4l-0.5-0.4l-0.5-0.4l-0.4-0.4l-0.4-0.4
			l-0.4-0.4l-0.4-0.4l-0.4-0.4l-0.4-0.4l-0.4-0.5l-0.4-0.5l-0.4-0.5l-0.3-0.5l-0.3-0.5l-0.3-0.5l-0.3-0.5l-0.3-0.5l-0.3-0.5
			l-0.3-0.5l-0.2-0.5l-0.2-0.5l-0.2-0.5l-0.2-0.5l-0.2-0.5l-0.2-0.5l-0.1-0.5l-0.2-0.5l-0.1-0.6l-0.1-0.6l-0.1-0.6l-0.1-0.6
			l-0.1-0.6l-0.1-0.6l0-0.6l0-0.6l0-0.6l0-0.6l0-0.6l0-0.6l0-0.6l0-0.6l0.1-0.6l0.1-0.6l0.1-0.6l0.1-0.6l0.1-0.6l0.1-0.6l0.2-0.5
			l0.1-0.6l0.2-0.5l0.2-0.5l0.2-0.5l0.2-0.5l0.2-0.5l0.2-0.5l0.3-0.5l0.3-0.5l0.3-0.5l0.3-0.5l0.3-0.5l0.3-0.5l0.3-0.5l0.4-0.5
			l0.4-0.5l0.4-0.4l0.4-0.5l0.4-0.5l0.4-0.4l0.4-0.4l0.4-0.4l0.4-0.4l0.5-0.4l0.5-0.4l0.5-0.4l0.5-0.4l0.5-0.3l0.5-0.3l0.5-0.3
			l0.5-0.3l0.5-0.3l0.5-0.3l0.5-0.3l0.5-0.2l0.5-0.2l0.5-0.2l0.5-0.2l0.5-0.2l0.5-0.2l0.5-0.2l0.6-0.2l0.6-0.2l0.6-0.1l0.6-0.1
			l0.6-0.1l0.6-0.1l0.6-0.1l0.6-0.1l0.6-0.1l0.6,0h0.6l0.6,0l0.6,0h0.6l0.6,0l0.6,0.1l0.6,0.1l0.6,0.1l0.6,0.1l0.6,0.1l0.6,0.1
			l0.6,0.1l0.6,0.2l0.6,0.2l0.5,0.2l0.5,0.2l0.5,0.2l0.5,0.2l0.5,0.2l0.5,0.2l0.5,0.2l0.5,0.3l0.5,0.3l0.5,0.3l0.5,0.3l0.5,0.3
			l0.5,0.3l0.5,0.3l0.5,0.4l0.5,0.4l0.5,0.4l0.5,0.4l0.5,0.4l0.4,0.4l0.4,0.4l0.4,0.4l0.4,0.5l0.4,0.5l0.4,0.4l0.4,0.5l0.4,0.5
			l0.3,0.5l0.3,0.5l0.3,0.5l0.3,0.5l0.3,0.5l0.3,0.5l0.3,0.5l0.2,0.5l0.2,0.5l0.2,0.5l0.2,0.5l0.2,0.5l0.2,0.5l0.2,0.6l0.1,0.5
			l0.1,0.6l0.1,0.6l0.1,0.6l0.1,0.6l0.1,0.6l0.1,0.6l0,0.6l0,0.6l0,0.6L422.9-3241.6z"/>
		<path class="st1" d="M377.9-3190.3h-2.4v-17.7h2.4v5.8c0.4-0.6,0.9-1,1.5-1.3c0.7-0.3,1.4-0.5,2.2-0.4c1.4-0.1,2.8,0.5,3.8,1.6
			c1,1.2,1.4,2.8,1.3,4.4v7.7h-2.4v-6.9c0.1-1.2-0.2-2.3-0.8-3.3c-0.5-0.7-1.4-1.1-2.3-1.1c-1.2,0-2.3,0.6-2.8,1.7
			c-0.2,0.4-0.3,0.8-0.4,1.2c-0.1,0.8-0.1,1.5-0.1,2.3L377.9-3190.3z"/>
		<path class="st1" d="M388.8-3196.9c0-0.9,0.2-1.8,0.5-2.7c0.3-0.8,0.8-1.6,1.4-2.2c0.6-0.7,1.4-1.3,2.3-1.7
			c0.8-0.4,1.7-0.6,2.6-0.6c1.9,0,3.7,0.7,5,2.1c0.6,0.7,1.2,1.4,1.5,2.3c0.4,0.8,0.5,1.7,0.5,2.6c0,0.9-0.2,1.8-0.5,2.7
			c-0.7,1.8-2,3.2-3.7,4c-0.8,0.4-1.8,0.6-2.7,0.6c-0.9,0-1.9-0.2-2.7-0.5c-0.8-0.4-1.6-0.9-2.2-1.6c-0.6-0.7-1.1-1.4-1.5-2.3
			C389-3195.1,388.8-3196,388.8-3196.9 M391.3-3197c0,1.2,0.4,2.4,1.3,3.3c0.8,0.9,2,1.4,3.2,1.3c1.2,0,2.3-0.5,3.1-1.3
			c1.7-1.9,1.7-4.8,0-6.7c-1.7-1.7-4.5-1.8-6.2-0.1c0,0-0.1,0.1-0.1,0.1C391.7-3199.4,391.2-3198.2,391.3-3197L391.3-3197z"/>
		<path class="st1" d="M405.5-3190.3v-11.2h-1.9v-2.2h1.9v-4.3h2.4v4.3h1.9v2.2h-1.9v11.2L405.5-3190.3z"/>
		<path class="st1" d="M413.3-3196.1c0.2,1.1,0.7,2,1.5,2.7c0.8,0.7,1.8,1.1,2.9,1c1.6,0,3-0.8,3.7-2.2h2.7
			c-0.5,1.4-1.4,2.5-2.6,3.4c-1.1,0.8-2.5,1.2-3.9,1.2c-0.9,0-1.9-0.2-2.7-0.5c-0.8-0.4-1.6-0.9-2.2-1.6c-0.6-0.7-1.1-1.4-1.5-2.3
			c-0.3-0.8-0.5-1.8-0.5-2.7c0-0.9,0.2-1.8,0.5-2.6c0.3-0.8,0.8-1.6,1.4-2.2c1.3-1.4,3.1-2.2,5-2.2c1.1,0,2.3,0.3,3.3,0.8
			c1,0.5,1.9,1.3,2.5,2.3c0.4,0.6,0.7,1.3,0.9,2c0.2,0.8,0.3,1.7,0.3,2.5v0.4L413.3-3196.1z M421.9-3198.2c-0.2-1-0.8-1.9-1.6-2.6
			c-0.7-0.6-1.7-0.9-2.7-0.9c-1,0-2,0.3-2.7,0.9c-0.8,0.6-1.4,1.5-1.6,2.5H421.9z"/>
		<rect x="426.7" y="-3208" class="st1" width="2.4" height="17.7"/>
		<path class="st1" d="M433.7-3196.1c0.2,1.1,0.7,2,1.5,2.7c1.4,1.2,3.4,1.4,5,0.5c0.7-0.4,1.2-0.9,1.6-1.6h2.7
			c-0.5,1.4-1.4,2.5-2.6,3.4c-1.1,0.8-2.5,1.2-3.9,1.2c-0.9,0-1.9-0.2-2.7-0.5c-0.8-0.4-1.6-0.9-2.2-1.6c-0.6-0.7-1.1-1.4-1.5-2.3
			c-0.3-0.8-0.5-1.8-0.5-2.7c0-0.9,0.2-1.8,0.5-2.6c0.3-0.8,0.8-1.6,1.4-2.2c1.3-1.4,3.1-2.2,5-2.2c1.1,0,2.3,0.3,3.3,0.8
			c1,0.5,1.9,1.3,2.5,2.3c0.4,0.6,0.7,1.3,0.9,2c0.2,0.8,0.3,1.7,0.3,2.5v0.4L433.7-3196.1z M442.3-3198.2c-0.2-1-0.8-1.9-1.6-2.6
			c-0.7-0.6-1.7-0.9-2.6-0.9c-1,0-2,0.3-2.7,0.9c-0.8,0.6-1.4,1.5-1.6,2.5H442.3z"/>
		<path class="st1" d="M446.1-3194.6h2.3c0,0.6,0.2,1.3,0.6,1.7c0.4,0.4,0.9,0.7,1.5,0.7c0.5,0,1-0.2,1.4-0.5
			c0.4-0.3,0.6-0.8,0.5-1.3c0-0.4-0.1-0.8-0.4-1.2c-0.3-0.4-0.8-0.7-1.2-0.8c-0.2-0.1-0.5-0.2-0.8-0.3c-0.6-0.2-1.2-0.5-1.8-0.9
			c-0.4-0.3-0.8-0.8-1.1-1.3c-0.2-0.5-0.4-1.1-0.3-1.7c0-2.2,1.7-3.9,3.9-3.9c0,0,0,0,0,0c1-0.1,2,0.3,2.7,1
			c0.7,0.8,1.1,1.8,1.1,2.8h-2.3c0-0.4-0.2-0.8-0.5-1.2c-0.3-0.3-0.7-0.4-1.1-0.4c-0.4,0-0.8,0.2-1.1,0.4c-0.3,0.3-0.4,0.7-0.4,1.1
			c0,0.7,0.6,1.4,1.9,1.8c0.4,0.1,0.7,0.2,0.9,0.3c0.9,0.3,1.6,0.8,2.2,1.5c0.5,0.7,0.7,1.6,0.7,2.5c0,1.1-0.4,2.2-1.2,3
			c-0.8,0.8-1.9,1.2-3.1,1.2c-1.1,0-2.2-0.4-3-1.3C446.6-3192.1,446.1-3193.3,446.1-3194.6"/>
	</g>
</g>
<g id="Capa_3" class="st0">
</g>
<g id="Capa_4" class="st0">
</g>
<g id="Capa_5" class="st0">
</g>
</svg>
