<svg xmlns="http://www.w3.org/2000/svg" width="1204.353" height="96.616" viewBox="0 0 1204.353 96.616"><defs><style>.a{fill:rgba(0,0,0,0.2);}</style></defs><g transform="translate(-299.647 -3653)"><g transform="translate(18.882 3588.846)"><path class="a" d="M307.873,97.429a13.718,13.718,0,0,0,12.071,7.3,13.908,13.908,0,0,0,13.76-14.05,14.307,14.307,0,0,0-.434-3.512c6.657.451,13.11,1.982,11.5,6.37-2.493,6.795-25.193,15.991-44.328,17.273,17.127,5.139,59.269-3.407,59.032-17.7-.129-7.961-15.267-8.258-26.64-7.353a13.722,13.722,0,0,0-26.647,4.925,14.284,14.284,0,0,0,.978,5.2c-7.023-.607-14.291-2.313-12.426-6.893,2.73-6.7,25.678-17.534,44.847-18.124-24.891-3.86-58.58,8.688-58.817,19.575-.17,7.845,15.813,7.915,27.107,6.987" transform="translate(0 0)"/><path class="a" d="M319.671,230.491l1.377-11.26,1.345,11.26Zm3.536,6.593h3.32l-3.163-22.548h-4.446l-3.132,22.548h3.1l.4-3.537h3.475Z" transform="translate(-23.049 -94.862)"/><path class="a" d="M354.835,217.685h1.629c.845,0,1.254.419,1.254,1.286v4.761a1.21,1.21,0,0,1-1.379,1.384h-1.5Zm0,10.423h1.5c.97,0,1.408.45,1.408,1.447v7.592H361.1V229.49c0-1.7-.566-2.574-1.943-2.959,1.22-.514,1.911-1.481,1.911-3.475v-4.244c0-2.8-1.345-4.183-4.071-4.183h-5.512v22.518h3.352Z" transform="translate(-46.547 -94.924)"/><path class="a" d="M387.565,230.492l1.377-11.26,1.345,11.26Zm-.755-15.955-3.131,22.548h3.1l.409-3.539h3.475l.439,3.539h3.32l-3.163-22.548Z" transform="translate(-67.734 -94.863)"/><path class="a" d="M424.974,232.622c0,.9-.407,1.318-1.252,1.318H423.1c-.878,0-1.283-.417-1.283-1.318V218.4c0-.9.4-1.318,1.283-1.318h.562c.847,0,1.252.417,1.252,1.318v4.408H428.2v-4.6c0-2.8-1.313-4.149-4.039-4.149h-1.627c-2.724,0-4.071,1.382-4.071,4.182v14.54c0,2.8,1.347,4.182,4.071,4.182h1.659c2.722,0,4.071-1.383,4.071-4.182V227.54h-3.288Z" transform="translate(-90.631 -94.549)"/><path class="a" d="M459.262,232.624c0,.9-.407,1.318-1.252,1.318h-.691c-.876,0-1.282-.419-1.282-1.318V218.4c0-.9.407-1.318,1.282-1.318h.691c.845,0,1.252.419,1.252,1.318Zm-.721-18.561h-1.786c-2.722,0-4.069,1.382-4.069,4.181v14.541c0,2.8,1.347,4.181,4.069,4.181h1.786c2.724,0,4.069-1.384,4.069-4.181V218.244c0-2.8-1.345-4.181-4.069-4.181" transform="translate(-113.087 -94.55)"/><path class="a" d="M487.279,214.631v22.516h7.045v-3.12h-3.694v-19.4Z" transform="translate(-135.938 -94.925)"/><path class="a" d="M293.7,222.812v-4.6c0-2.8-1.315-4.149-4.039-4.149h-1.629c-2.722,0-4.069,1.381-4.069,4.182v14.54c0,2.8,1.347,4.18,4.069,4.18h1.659c2.726,0,4.071-1.383,4.071-4.18v-5.245h-3.288v5.082c0,.9-.407,1.318-1.252,1.318H288.6c-.879,0-1.284-.417-1.284-1.318V218.4c0-.9.4-1.318,1.284-1.318h.562c.847,0,1.252.417,1.252,1.318v4.408Z" transform="translate(-2.114 -94.551)"/><path class="a" d="M286.407,300.187v-6.3h-2.442V292.3H290.9v1.589h-2.444v6.3Z" transform="translate(-2.114 -146.23)"/><path class="a" d="M309.884,300.187V292.3h5.931v1.589h-3.883v1.634h3.354v1.59h-3.354V298.6h3.939v1.589Z" transform="translate(-19.236 -146.23)"/><path class="a" d="M333.253,300.187V292.3H335.3v6.267h3.659v1.623Z" transform="translate(-34.554 -146.23)"/><path class="a" d="M355.262,300.187V292.3h5.931v1.589h-3.883v1.634h3.354v1.59h-3.354V298.6h3.939v1.589Z" transform="translate(-49.043 -146.23)"/><path class="a" d="M383.368,292.3h2.06l-2.87,7.89h-2.353l-2.87-7.89h2.207l1.935,5.612Z" transform="translate(-63.567 -146.231)"/><rect class="a" width="2.06" height="7.89" transform="translate(323.667 146.066)"/><path class="a" d="M418.236,298.548l1.159-1.308a2.914,2.914,0,0,0,2.092,1.218c.619,0,.935-.294.935-.746a.675.675,0,0,0-.439-.664,1.888,1.888,0,0,0-.4-.169c-.125-.034-.282-.08-.5-.123-.214-.059-.36-.093-.449-.127a2.453,2.453,0,0,1-2.082-2.4c0-1.77,1.463-2.333,3.072-2.333a4.507,4.507,0,0,1,2.858,1l-.944,1.354c-.214-.169-.394-.305-.517-.384a2.449,2.449,0,0,0-.587-.293,2.054,2.054,0,0,0-.8-.169c-.607,0-.912.236-.912.71a.652.652,0,0,0,.259.563,4.724,4.724,0,0,0,1.058.428l.689.237c.157.055.358.145.6.246a1.957,1.957,0,0,1,.541.328,1.914,1.914,0,0,1,.753,1.668c0,1.859-1.518,2.423-3.106,2.423a4.028,4.028,0,0,1-3.275-1.465" transform="translate(-90.498 -145.967)"/><rect class="a" width="2.06" height="7.89" transform="translate(336.359 146.066)"/><path class="a" d="M459.356,286.953l.935-1.566h1.779l-1.306,1.566Zm2.274,6.4a2.524,2.524,0,0,0,0-3.336,2.157,2.157,0,0,0-1.632-.653,2.133,2.133,0,0,0-1.622.653,2.563,2.563,0,0,0,0,3.336,2.2,2.2,0,0,0,1.622.633,2.224,2.224,0,0,0,1.632-.633m-4.8,1.252a4.21,4.21,0,0,1,0-5.852,4.869,4.869,0,0,1,6.336,0,4.211,4.211,0,0,1,0,5.852,4.9,4.9,0,0,1-6.336,0" transform="translate(-115.045 -141.666)"/><path class="a" d="M491.994,292.3h1.935v7.89h-1.621l-3.793-4.9q.1,1.5.1,1.893v3.009h-1.925l-.01-7.89h1.632l3.748,4.745q-.069-.763-.068-2.3Z" transform="translate(-135.544 -146.23)"/></g><g transform="translate(308.638 3508.222)"><path class="a" d="M435.652,179.352v-.341l.015-.335.019-.332.028-.332.034-.317.035-.311.05-.326.054-.3.054-.322.073-.3.073-.306.088-.3.1-.3.1-.285.1-.3.106-.276.129-.3.121-.274.13-.278.157-.278.151-.283.145-.261.162-.263.175-.272.192-.263.179-.251.2-.259.2-.257.209-.248.218-.25.216-.252.233-.231.244-.24.246-.231.235-.222.251-.214.246-.2.253-.2.255-.194.252-.175.272-.186.246-.168.274-.151.281-.151.265-.156.276-.119.274-.14.294-.123.276-.114.287-.114.293-.1.3-.1.289-.084.3-.073.319-.088.3-.052.317-.058.309-.048.328-.05.321-.02.326-.034.326-.011.337-.017.341,0h7.324V155.909h-7.324l-.606.011-.607,0-.585.047-.595.039-.579.06-.587.082-.574.093-.568.1-.574.117-.552.123-.554.136-.561.155-.533.17-.546.175-.524.2-.541.207-.52.226-.518.231-.5.255-.514.248-.488.281-.507.294-.488.3-.485.313-.479.321-.464.347-.477.347-.464.369-.451.382-.455.4-.442.4-.442.427-.443.421-.42.432-.393.443-.382.444-.4.449-.349.468-.349.464-.339.473-.322.469-.321.479-.287.5-.289.484-.268.5-.252.511-.238.514-.231.516-.205.52-.2.531-.188.539-.177.546-.153.535-.147.544-.125.563-.115.567-.1.565-.1.565-.067.58-.058.6-.058.58-.039.6,0,.6-.015.589V202.9h10.936l.008-10.251Z" transform="translate(-109.691 -0.09)"/><path class="a" d="M313.855,179.32V202.74H302.969V191.47h-.013V178.834l-.005-.347-.028-.33-.019-.33-.037-.332-.037-.332-.058-.311-.035-.33-.071-.326-.078-.307-.078-.315-.086-.308-.093-.3-.106-.3-.1-.3-.117-.3-.121-.3-.136-.291-.134-.285-.145-.279-.155-.3-.155-.27-.172-.279-.181-.272-.175-.276-.19-.257-.194-.272-.211-.261-.207-.263-.218-.248-.231-.252-.237-.248-.235-.261-.24-.22-.254-.229-.246-.22-.25-.214-.25-.209-.272-.19-.257-.2-.263-.175-.279-.17-.267-.177-.274-.153-.281-.162-.285-.138-.283-.13-.293-.132-.3-.112-.291-.114-.294-.106-.306-.11-.309-.073-.3-.08-.319-.084-.332-.06-.311-.054-.321-.063-.319-.032-.33-.039-.33-.034-.335-.017-.341,0-.348-.015-.352.015-.33,0-.33.017-.339.034-.326.039-.328.032-.315.063-.324.054-.319.06-.319.084-.3.08-.306.073-.3.11-.3.106-.3.114-.291.112-.289.132-.277.13-.291.138-.272.162-.276.153-.272.177-.279.17-.267.175-.248.2-.265.19-.255.209-.259.214-.246.22-.253.229-.244.22-.231.261-.235.248-.231.252-.212.248-.209.263-.214.261-.192.272-.183.257-.181.276-.183.272-.175.279-.158.27-.153.3-.138.279-.141.285-.127.291-.127.3-.114.3-.1.3-.106.3-.1.3-.069.308-.084.315-.067.307-.078.326-.039.33-.069.311-.032.332-.03.332-.024.33-.02.33-.011.347v.684l.011.334.02.337.024.337.03.332.032.332.069.309.039.321.078.313.067.321.084.311.069.313.1.3.106.306.1.3.114.281.127.306.127.281.141.3.138.27.153.278.158.276.175.281.183.263.181.281.183.25.192.272.214.252.209.266.212.242.231.257.235.233.231.25.244.231.253.233.246.216.259.209.255.2.265.2.248.179.267.192.279.162.272.173.276.16.272.136.291.147.277.129.289.13.291.121.3.106.3.106.3.089.306.091.3.089.319.069.319.067.324.056.315.05.328.039.326.035.339.028.33.009.33.015.352.007h10.141V202.74h-10.6l-.6-.02-.6-.037-.589-.05-.582-.052-.585-.076-.578-.086-.568-.108-.565-.114-.557-.127-.557-.147-.554-.145-.544-.155-.531-.2-.529-.19-.522-.207-.533-.218-.511-.233-.507-.246-.516-.261-.492-.278-.5-.272-.485-.311-.486-.315-.485-.334-.462-.33-.473-.361L275,197.5l-.451-.384-.457-.393-.442-.4-.442-.414-.442-.442-.412-.432-.408-.438-.38-.447-.393-.451-.35-.457-.35-.466-.343-.481-.33-.473-.3-.485-.295-.479-.281-.492-.27-.5-.25-.507-.242-.5-.226-.518-.218-.526-.2-.514-.183-.531-.175-.546-.144-.548-.157-.548-.129-.559-.114-.55-.1-.572-.1-.58-.067-.57-.073-.583-.043-.591-.039-.591-.006-.6-.007-.613.007-.6.006-.6.039-.608.043-.585.073-.581.067-.58.1-.574.1-.565.114-.557.129-.563.157-.544.144-.55.175-.537.183-.526.2-.546.218-.516.226-.514.242-.509.25-.518.27-.49.281-.5.295-.485.3-.483.33-.49.343-.473.35-.462.35-.46.393-.447.38-.457.408-.451.412-.436.442-.427.442-.434.442-.414.457-.391.451-.382.466-.371.473-.356.462-.348.485-.321.486-.326.485-.3.5-.3.492-.267.516-.272.507-.24.511-.248.533-.216.522-.214.529-.186.531-.2.544-.151.554-.155.557-.151.557-.127.565-.11.568-.1.578-.084.585-.078.582-.069.589-.052.6-.034h.6l.6-.022.624.022h.593l.6.034.587.052.585.069.578.078.585.084.557.1.572.11.557.127.555.151.555.155.544.151.535.2.535.186.529.214.514.216.526.248.518.24.5.272.5.267.5.3.49.3.481.326.486.321.479.348.457.356.464.371.46.382.453.391.451.414.44.434.438.427.418.436.4.451.4.457.375.447.36.46.362.462.334.473.326.49.308.483.289.485.3.5.259.49.255.518.242.509.227.514.22.516.188.546.179.526.185.537.164.55.138.544.125.563.136.557.1.565.078.574.084.58.058.581.041.585.037.608.02.6Z"/><path class="a" d="M269.344,359.185h-2.406v-17.7h2.406v5.848a3.717,3.717,0,0,1,1.515-1.3,5.039,5.039,0,0,1,2.171-.438,4.745,4.745,0,0,1,3.783,1.558,6.456,6.456,0,0,1,1.347,4.363v7.675h-2.408v-6.9a5.829,5.829,0,0,0-.751-3.306,2.631,2.631,0,0,0-2.313-1.085,3.077,3.077,0,0,0-2.846,1.7,3.886,3.886,0,0,0-.382,1.217,15.821,15.821,0,0,0-.117,2.289Z" transform="translate(-0.519 -128.501)"/><path class="a" d="M310.091,361.276a7.241,7.241,0,0,1,.481-2.654,6.767,6.767,0,0,1,1.416-2.221,7.269,7.269,0,0,1,2.276-1.666,6.19,6.19,0,0,1,2.628-.583,6.746,6.746,0,0,1,4.961,2.065,7.246,7.246,0,0,1,1.511,2.278,6.636,6.636,0,0,1,.531,2.613,7.467,7.467,0,0,1-.492,2.676,7.149,7.149,0,0,1-3.673,3.97,6.449,6.449,0,0,1-2.706.579,6.865,6.865,0,0,1-2.714-.527,6.775,6.775,0,0,1-2.225-1.564,7.267,7.267,0,0,1-1.465-2.294,7.074,7.074,0,0,1-.53-2.671m2.5-.024a4.659,4.659,0,0,0,1.269,3.345,4.185,4.185,0,0,0,3.168,1.338,4.1,4.1,0,0,0,3.12-1.344,5.117,5.117,0,0,0,0-6.721,4.374,4.374,0,0,0-6.288.02A4.691,4.691,0,0,0,312.587,361.252Z" transform="translate(-30.379 -137.269)"/><path class="a" d="M360,359.185V348h-1.9v-2.19H360V341.48h2.4v4.327h1.9V348h-1.9v11.188Z" transform="translate(-63.607 -128.501)"/><path class="a" d="M383.946,362.2a4.536,4.536,0,0,0,1.514,2.719,4.274,4.274,0,0,0,2.877,1.042,4.184,4.184,0,0,0,3.735-2.19h2.71a7.618,7.618,0,0,1-2.585,3.405,6.485,6.485,0,0,1-3.86,1.179,6.865,6.865,0,0,1-2.712-.524,6.691,6.691,0,0,1-2.227-1.568,7.284,7.284,0,0,1-1.467-2.292,7.107,7.107,0,0,1-.526-2.672,7.185,7.185,0,0,1,.479-2.637,7.05,7.05,0,0,1,1.416-2.238,6.511,6.511,0,0,1,4.989-2.2,6.741,6.741,0,0,1,3.272.82,6.965,6.965,0,0,1,2.5,2.3,6.848,6.848,0,0,1,.861,2,10.1,10.1,0,0,1,.282,2.488v.375Zm8.625-2.164a4.862,4.862,0,0,0-1.558-2.559,4.049,4.049,0,0,0-2.652-.907,4.253,4.253,0,0,0-2.742.932,4.73,4.73,0,0,0-1.6,2.534Z" transform="translate(-79.728 -137.322)"/><rect class="a" width="2.384" height="17.705" transform="translate(317.573 212.978)"/><path class="a" d="M450.165,362.2a4.518,4.518,0,0,0,1.513,2.719,4.454,4.454,0,0,0,5.047.469,4.211,4.211,0,0,0,1.564-1.617H461a7.635,7.635,0,0,1-2.587,3.405,6.494,6.494,0,0,1-3.864,1.179,6.848,6.848,0,0,1-2.708-.524,6.653,6.653,0,0,1-2.227-1.568,7.238,7.238,0,0,1-1.463-2.292,7.005,7.005,0,0,1-.529-2.672,7.216,7.216,0,0,1,.477-2.637,7.049,7.049,0,0,1,1.418-2.238,6.52,6.52,0,0,1,4.987-2.2,6.757,6.757,0,0,1,3.277.82,6.95,6.95,0,0,1,2.5,2.3,6.806,6.806,0,0,1,.865,2,10.025,10.025,0,0,1,.278,2.488v.375Zm8.623-2.164a4.86,4.86,0,0,0-1.558-2.559,4.048,4.048,0,0,0-2.65-.907,4.25,4.25,0,0,0-2.743.932,4.74,4.74,0,0,0-1.6,2.534Z" transform="translate(-125.549 -137.322)"/><path class="a" d="M496.224,363.663h2.262a2.594,2.594,0,0,0,.59,1.746,1.87,1.87,0,0,0,1.478.686,1.916,1.916,0,0,0,1.379-.516,1.744,1.744,0,0,0,.541-1.322,1.851,1.851,0,0,0-.384-1.189,2.878,2.878,0,0,0-1.234-.827c-.192-.082-.468-.188-.826-.315a7.851,7.851,0,0,1-1.814-.852,3.669,3.669,0,0,1-1.057-1.3,3.91,3.91,0,0,1-.343-1.672,3.895,3.895,0,0,1,3.92-3.916,3.69,3.69,0,0,1,2.723,1,4.123,4.123,0,0,1,1.107,2.814h-2.311a1.76,1.76,0,0,0-.485-1.154,1.575,1.575,0,0,0-1.146-.414,1.438,1.438,0,0,0-1.075.444,1.51,1.51,0,0,0-.432,1.1q0,1.118,1.947,1.836c.363.138.651.246.863.328a4.771,4.771,0,0,1,2.182,1.545,4.192,4.192,0,0,1,.652,2.468,4.02,4.02,0,0,1-1.219,2.993,4.191,4.191,0,0,1-3.064,1.193,3.869,3.869,0,0,1-3-1.254,5.284,5.284,0,0,1-1.254-3.429" transform="translate(-159.179 -137.296)"/></g><path class="a" d="M280.775,307.83a15.99,15.99,0,0,0-9.7-2.824,5.952,5.952,0,0,0-4.732,2.564c-1.475-2.564-4.383-4.143-8.883-4.105-7.269.085-14.479,3.444-20.194,3.444-5.483,0-9.479-3.444-9.346-9.558.228-10.725,9.288-20.386,16.061-24.738,3.888-2.5,7.152-3.242,9.284-3a3.118,3.118,0,0,1,2.248,4.617c-1.732,3.883-4.125,3.554-4.041,1.7a3.067,3.067,0,0,1,1.454-2.377,2.992,2.992,0,0,1,1.409-.347c.343-.29.6-2.41-2.186-1.711s-6.144,3.439-9.343,6.968-8.182,10.229-9.41,17.25c-.574,3.261-.187,9.193,7.525,9.12,6.542-.053,16.194-4.361,25.059-4.286a16.938,16.938,0,0,1,8.776,2.4c2.3,1.42,5.052,3.479,6.023,4.887m2.1-19.44h1.339s-6.715,9.71-10.516,9.273c-2.117-.242-1.487-2.863-1.487-2.863s-2.985,3.488-5.709,2.79c-2.481-.635-.882-4.759-.882-4.759-.282.114-5.648,6.167-9.416,4.716-3.941-1.517-1.9-6.585-1.147-8.108.632-1.285,1.337-2.536,1.337-2.536s-.607.174-.981.258-.949.2-.949.2-1.866,3.034-3.008,4.551-5.985,6.72-8.84,5.681-2.153-5.032-.543-8.207c2.6-5.152,8.77-11.477,12.488-10.53,3.757.955.651,7.052.651,7.052s.743.1,2.532-1.126c2.584-1.757,5.985-6.493,9.672-5.937,1.724.256,3.342,2.035,1.136,5.406-.707,1.083-1.889,2.053-2.8,1.094-.563-.588-.075-1.676.521-2.419a2.335,2.335,0,0,1,1.988-.914s.607-1.4-.935-1.369c-1.256.025-4.425,2.947-6.219,5.9-1.643,2.709-4.13,7.33-1.629,8.335,2.292.926,6.647-4.256,8.669-6.965s6.617-8.864,10.472-9.115a2.571,2.571,0,0,1,2.119,1.122l.446-.708h3.851s-7.263,12.14-7.831,13.056c-.449.722-1.036,2.337.6,1.429S282.872,288.39,282.872,288.39Zm-29.913-1.232a8.4,8.4,0,0,1-1.983-.908,4.282,4.282,0,0,1-1.42-1.571c-.034-.062-.072-.012-.111.039s-.24.317-1.615,2.332-3.409,6.156-1.5,6.862c1.22.453,3.275-1.7,4.386-3.116a36.136,36.136,0,0,0,2.312-3.466C253.076,287.209,253.026,287.183,252.959,287.158Zm1.529-6.452c-1.013-.764-3.589,1.023-3.6,2.854-.017,1.873,2.323,2.406,2.621,2.42a.325.325,0,0,0,.373-.15,16.69,16.69,0,0,0,.738-1.652C254.976,283.242,255.43,281.421,254.488,280.706Zm19.645,10.1c1.557-2.133,5.848-9.611,5.848-9.611a.63.63,0,0,0-.571-.55c-.6-.03-1.579.171-3.554,2.638a46.248,46.248,0,0,0-4.609,6.472c-1.219,2.229-1.757,3.8-1.052,4.227a1.043,1.043,0,0,0,.735.074,4.437,4.437,0,0,0,1.874-1.52C273.189,292.1,273.621,291.51,274.133,290.809Zm17.322-11.58H287.8l-2.064,3.348h3.656Zm48.026,24.939a1.322,1.322,0,0,0-1.326,1.323,1.342,1.342,0,0,0,.387.958,1.326,1.326,0,0,0,2.264-.958,1.321,1.321,0,0,0-1.325-1.323Zm1.54,1.323a1.541,1.541,0,1,1-3.083,0,1.555,1.555,0,0,1,1.543-1.537,1.491,1.491,0,0,1,1.092.454A1.468,1.468,0,0,1,341.021,305.491Zm-1.139-.33a.253.253,0,0,0-.114-.249.709.709,0,0,0-.356-.066h-.254v.612h.268a.907.907,0,0,0,.284-.034A.276.276,0,0,0,339.882,305.161Zm-1.022-.515h.588a1.345,1.345,0,0,1,.465.057.423.423,0,0,1,.265.429.356.356,0,0,1-.17.332.622.622,0,0,1-.242.092.389.389,0,0,1,.29.161.5.5,0,0,1,.092.265v.122c0,.036.006.075.006.12s0,.077.014.091l.011.018H339.9v-.014c-.011,0-.011,0-.011-.018l0-.056v-.139c0-.191-.048-.32-.162-.379a.608.608,0,0,0-.323-.06h-.24v.666h-.3Zm6.639-31.434c-2.7,1.745-6.458,3.32-10.059,2.973-.91.944-1.883,2.035-2.868,3.227,6.255,1.233,11.719-2.639,14.632-5.937a19.558,19.558,0,0,0,2.71-3.9A24.377,24.377,0,0,1,345.5,273.212Zm-10.71,28.394c-.521.827-1.106,2.417.607,1.428,2.08-1.209,5.049-5.712,5.049-5.712h1.34a44.536,44.536,0,0,1-4.072,5.354c-2.116,2.339-4.69,4.471-6.506,4.262-2.122-.248-1.459-3.033-1.459-3.033s-3.041,3.23-5.135,3c-2.83-.312-1.969-3.818-1.969-3.818s-3.206,3.943-5.386,3.818c-3.423-.2-2.568-4.379-1.616-7.3.512-1.57.986-2.8.986-2.8s-.343.089-1.07.195c-.384.056-1.078.1-1.078.1a46.4,46.4,0,0,1-2.565,4.03c-1.142,1.517-5.982,6.726-8.84,5.687-2.637-.965-1.768-5-.231-8.212,2.236-4.677,8.536-11.407,12.176-10.527,3.762.916.083,7.792.083,7.792s0,.026.042.039a1.538,1.538,0,0,0,.724-.035,8.035,8.035,0,0,0,1.381-.413,80.259,80.259,0,0,1,7.968-13.128c4.183-5.189,12.526-14.132,15.807-11.971.8.529.437,2.362-.641,4.588a15.094,15.094,0,0,1-1.479.384,11.876,11.876,0,0,0,1.342-3.184c.49-2.679-5.767,2.973-10.243,9.058a84.671,84.671,0,0,0-7.155,11.6,18.66,18.66,0,0,0,2.312-1.644,66.523,66.523,0,0,0,5.681-5.308,61.54,61.54,0,0,0,4.835-5.582,13.917,13.917,0,0,0,1.42-.145,60.942,60.942,0,0,1-5.33,6.308c-1.777,1.8-3.712,3.746-5.394,5.164a45.4,45.4,0,0,1-4.732,3.52s-3.921,7.882-1.793,8.394c1.256.3,3.724-3.509,3.724-3.509a87.541,87.541,0,0,1,5.166-7.138c2.651-3.019,4.932-4.76,7.213-4.8a2.715,2.715,0,0,1,2.111,1.4l.627-.968h3.857S335.362,300.686,334.789,301.606Zm-21.647-4.8a8.13,8.13,0,0,1-1.771-1.128,5.7,5.7,0,0,1-1.334-1.613c-.034-.063-.075-.016-.112.04a24.875,24.875,0,0,0-1.573,2.208c-1.37,2.016-3.475,6.182-1.565,6.887,1.22.454,3.258-1.685,4.367-3.105a26.69,26.69,0,0,0,2.047-3.116C313.256,296.858,313.206,296.825,313.142,296.805Zm1.941-3.409c.356-.93.808-2.751-.139-3.467-1.008-.762-3.579,1.026-3.6,2.849a3.159,3.159,0,0,0,2.256,2.838c.251.07.334.063.459-.141A16.207,16.207,0,0,0,315.083,293.4ZM337.2,290.82a1.065,1.065,0,0,0,.111-.261.628.628,0,0,0-.571-.547c-.6-.026-1.406.087-3.531,2.442a31.87,31.87,0,0,0-4.523,6.425c-1.22,2.23-1.707,3.886-1.008,4.312a1.046,1.046,0,0,0,.738.073c.473-.114,1.011-.555,1.832-1.5.382-.439.808-1.068,1.312-1.767C332.956,298.078,336.49,292.04,337.2,290.82Zm8.3-17.608c-2.7,1.745-6.458,3.32-10.059,2.973-.91.944-1.883,2.035-2.868,3.227,6.255,1.233,11.719-2.639,14.632-5.937a19.558,19.558,0,0,0,2.71-3.9A24.377,24.377,0,0,1,345.5,273.212Zm-17.561,4.536c-2.955-1.516-5.108-3.365-7.361-4.522-2.15-1.1-3.531-1.555-5.266-1.324a5.047,5.047,0,0,0-.716.174s.9,3.05-2.654,8.175c-3.6,5.194-6.862,5.169-7.79,3.729-.972-1.5.279-4.575,2.379-7.3a26.384,26.384,0,0,1,6.046-5.233s-1.231-.749-4.252.964a42.479,42.479,0,0,0-12.713,12.329c-4.7,6.691-5.628,10.377-6.305,13.272s-.059,6,3.156,6,6.957-4.9,8.012-6.612c1.952-3.177,3.233-8.043.568-7.372-1.317.329-2.383,1.788-3.055,3.19a13.291,13.291,0,0,0-.963,2.814,11.188,11.188,0,0,0-2.607,1.516,19.264,19.264,0,0,0-2.465,2.188,15.5,15.5,0,0,1,1.855-6.069c1.846-3.748,5.239-5.463,7.152-5.622,1.735-.142,3.986,1.324,2.077,6.748s-7.527,12-13.443,12.091c-5.453.079-9.029-6.885-1.442-19.043,8.391-13.441,18.261-17.566,21.466-18.026s4.239.948,4.239.948a13.772,13.772,0,0,1,6.085-1.009c3.913.266,6.937,3.03,10.922,4.97C329.823,275.733,328.835,276.773,327.938,277.749Zm-14.557-5.273a15.261,15.261,0,0,0-4.949,3.846c-2.668,2.943-4.208,6.228-3.061,7.1.44.334,1.451.389,3.3-1.269a14.716,14.716,0,0,0,3.9-5.409C313.754,273.843,313.381,272.514,313.381,272.476Z" transform="translate(602.086 3412.434)"/><g transform="translate(919.204 3443.619)"><path class="a" d="M224.836,244.206c0-5.04-5.215-6.825-9.678-6.825-3.139,0-10.488.752-10.909,7.706a.515.515,0,0,0,.52.561h5.306a.515.515,0,0,0,.518-.471c.223-2.459,2.447-2.976,4.276-2.976,2.635,0,3.97.821,3.97,2.422,0,1.686-1.278,1.921-3.938,2.248-.688.084-1.4.174-2.11.3-3.266.372-9.338,1.071-9.338,7.28,0,4.51,4.262,6.87,8.471,6.87a11.954,11.954,0,0,0,7.69-2.612,7.6,7.6,0,0,1,4.907-1.973.391.391,0,0,0,.293-.137.4.4,0,0,0,.077-.318,3.151,3.151,0,0,1-.054-.683Zm-11.149,12.3c-2.376,0-3.685-.78-3.893-2.306-.277-2,1.738-2.763,3.485-3.053.553-.1,1.138-.165,1.7-.234l.094-.015a13.289,13.289,0,0,0,3.469-.7v2.717c0,2.64-2.907,3.6-4.859,3.6m-11.781-18.461V250.1c0,5.078-1.185,10.9-10.4,10.9h-4.332a.376.376,0,0,1-.379-.372v-4.986a.378.378,0,0,1,.379-.38h4.753c3.094,0,3.678-1.86,3.678-5.276V238.042a.522.522,0,0,1,.522-.517h5.253a.524.524,0,0,1,.525.517m59.326,6.725v15.721a.522.522,0,0,1-.524.516h-5.3a.519.519,0,0,1-.52-.516V246.271c0-1.124-.269-4.069-3.72-4.069-3.211,0-3.559,2.627-3.559,4.069v14.218a.522.522,0,0,1-.52.516h-5.251a.523.523,0,0,1-.52-.516V246.271c0-1.442-.345-4.069-3.561-4.069-3.446,0-3.714,2.945-3.714,4.069v14.218a.524.524,0,0,1-.525.516h-5.3a.519.519,0,0,1-.52-.516V244.767c0-4.773,4.137-7.386,10.061-7.386a10.794,10.794,0,0,1,5.3,1.245,2.286,2.286,0,0,0,2.817,0,10.772,10.772,0,0,1,5.294-1.245c5.93,0,10.066,2.613,10.066,7.386m23.143-.561c0-5.04-5.213-6.825-9.675-6.825-3.144,0-10.491.752-10.909,7.706a.5.5,0,0,0,.146.409.522.522,0,0,0,.374.152h5.3a.518.518,0,0,0,.521-.471c.219-2.459,2.444-2.976,4.273-2.976,2.638,0,3.975.821,3.975,2.422,0,1.686-1.279,1.921-3.94,2.248-.69.084-1.4.174-2.115.3-3.264.372-9.332,1.071-9.332,7.28,0,4.51,4.258,6.87,8.468,6.87a11.955,11.955,0,0,0,7.693-2.612,7.582,7.582,0,0,1,4.9-1.973.4.4,0,0,0,.3-.137.391.391,0,0,0,.073-.318,3.354,3.354,0,0,1-.053-.683Zm-11.148,12.3c-2.373,0-3.682-.78-3.9-2.306-.276-2,1.738-2.763,3.486-3.053.553-.1,1.143-.165,1.707-.234l.1-.015a13.267,13.267,0,0,0,3.465-.7v2.717c0,2.64-2.9,3.6-4.858,3.6m29.022-18.6v4.988a.377.377,0,0,1-.381.371h-4.751c-3.093,0-3.678,1.861-3.678,5.284v11.941a.523.523,0,0,1-.525.516h-5.252a.521.521,0,0,1-.52-.516V248.426c0-5.079,1.18-10.9,10.4-10.9h4.33a.38.38,0,0,1,.381.381m4.51,2.772a.817.817,0,0,0,.72-.843c0-.565-.334-.852-.991-.852h-1.132a.031.031,0,0,0-.031.032v2.951a.031.031,0,0,0,.031.032h.331a.031.031,0,0,0,.032-.032v-1.278h.579l.858,1.3a.03.03,0,0,0,.026.015h.412a.031.031,0,0,0,.032-.032.034.034,0,0,0-.011-.024Zm-1.04-1.34h.7c.446,0,.663.161.663.491,0,.348-.2.5-.663.5h-.7Zm.564-1.361a2.513,2.513,0,1,0,2.513,2.513,2.515,2.515,0,0,0-2.513-2.513m0,4.671a2.159,2.159,0,1,1,2.118-2.165,2.116,2.116,0,0,1-2.118,2.165" transform="translate(0 0)"/><path class="a" d="M243.917,358.546h.906v.867h-.906Zm0,3.164.125-1.858h.657l.125,1.858v1.523h-.906Z" transform="translate(-40.466 -85.836)"/><path class="a" d="M250.379,354.584h.945v1.792h1.1v-1.792h.946v4.686h-.946v-2.08h-1.1v2.08h-.945Z" transform="translate(-45.043 -83.029)"/><path class="a" d="M263.461,354.583h1.168l1.241,4.687h-.984l-.217-.991h-1.247l-.217.991h-.984Zm.125,2.921h.918l-.453-2.107h-.014Z" transform="translate(-53.432 -83.028)"/><path class="a" d="M278.077,355.944c0-.682-.138-.977-.565-.977-.479,0-.59.478-.59,1.8,0,1.418.2,1.675.6,1.675.341,0,.591-.178.591-1.189h.945c0,1.011-.249,1.884-1.49,1.884-1.418,0-1.6-1.011-1.6-2.435s.177-2.435,1.6-2.435c1.352,0,1.451.991,1.451,1.673Z" transform="translate(-63.177 -82.807)"/><path class="a" d="M291.474,354.584v.774H289.8v1.1h1.576v.774H289.8v1.26h1.739v.774h-2.684v-4.686Z" transform="translate(-72.301 -83.029)"/><path class="a" d="M300.2,354.584h1.4l.669,3.308h.013l.676-3.308h1.4v4.686H303.5V355.53h-.013l-.834,3.741h-.735l-.834-3.741h-.013v3.741H300.2Z" transform="translate(-80.338 -83.029)"/><path class="a" d="M318.5,354.269c1.418,0,1.595,1.011,1.595,2.436s-.177,2.434-1.595,2.434-1.595-1.011-1.595-2.434.177-2.436,1.595-2.436m0,4.175c.558,0,.65-.479.65-1.739s-.092-1.74-.65-1.74-.65.485-.65,1.74.092,1.739.65,1.739" transform="translate(-92.172 -82.806)"/><path class="a" d="M330.525,357.584v.138c0,.439.124.721.623.721a.54.54,0,0,0,.565-.578c0-.427-.217-.584-.84-.8-.84-.289-1.227-.637-1.227-1.418a1.285,1.285,0,0,1,1.451-1.379c.84,0,1.451.361,1.451,1.26v.131h-.906c0-.439-.151-.7-.512-.7a.483.483,0,0,0-.538.544c0,.288.085.466.486.637l.728.315a1.2,1.2,0,0,1,.893,1.24c0,.991-.6,1.438-1.628,1.438-1.07,0-1.49-.5-1.49-1.365v-.19Z" transform="translate(-101.151 -82.806)"/><path class="a" d="M348.2,354.584h2.619v.774h-1.673v1.1h1.576v.774h-1.576v2.035H348.2Z" transform="translate(-114.34 -83.029)"/><path class="a" d="M358.358,354.583h1.168l1.241,4.687h-.985l-.217-.991h-1.247l-.216.991h-.984Zm.125,2.921h.919l-.453-2.107h-.013Z" transform="translate(-120.659 -83.028)"/><path class="a" d="M371.278,354.584h1.4l.669,3.308h.013l.676-3.308h1.4v4.686h-.866V355.53h-.013l-.834,3.741h-.735l-.834-3.741h-.013v3.741h-.866Z" transform="translate(-130.69 -83.029)"/><rect class="a" width="0.945" height="4.686" transform="translate(245.603 271.555)"/><path class="a" d="M394.58,359.271v-4.687h.945V358.5H397.2v.775Z" transform="translate(-147.198 -83.029)"/><rect class="a" width="0.945" height="4.686" transform="translate(250.599 271.555)"/><path class="a" d="M411.827,354.583H413l1.241,4.687h-.985l-.216-.991h-1.247l-.217.991h-.984Zm.125,2.921h.919l-.453-2.107H412.4Z" transform="translate(-158.538 -83.028)"/><path class="a" d="M424.994,357.584v.138c0,.439.125.721.623.721a.54.54,0,0,0,.565-.578c0-.427-.217-.584-.84-.8-.84-.289-1.228-.637-1.228-1.418a1.285,1.285,0,0,1,1.451-1.379c.84,0,1.45.361,1.45,1.26v.131h-.905c0-.439-.151-.7-.512-.7a.484.484,0,0,0-.539.544c0,.288.085.466.486.637l.728.315a1.2,1.2,0,0,1,.893,1.24c0,.991-.6,1.438-1.628,1.438-1.069,0-1.49-.5-1.49-1.365v-.19Z" transform="translate(-168.074 -82.806)"/><path class="a" d="M442.667,354.584h2.619v.774h-1.673v1.1h1.575v.774h-1.575v2.035h-.945Z" transform="translate(-181.264 -83.029)"/><path class="a" d="M456.16,354.584v.774h-1.674v1.1h1.575v.774h-1.575v1.26h1.739v.774h-2.684v-4.686Z" transform="translate(-188.967 -83.029)"/><path class="a" d="M464.82,359.271v-4.687h.945V358.5h1.673v.775Z" transform="translate(-196.957 -83.029)"/><rect class="a" width="0.945" height="4.686" transform="translate(271.079 271.555)"/><path class="a" d="M483.716,355.944c0-.682-.138-.977-.565-.977-.479,0-.59.478-.59,1.8,0,1.418.2,1.675.6,1.675.341,0,.591-.178.591-1.189h.945c0,1.011-.25,1.884-1.49,1.884-1.418,0-1.595-1.011-1.595-2.435s.177-2.435,1.595-2.435c1.352,0,1.451.991,1.451,1.673Z" transform="translate(-208.855 -82.807)"/><path class="a" d="M497.111,354.584v.774h-1.673v1.1h1.575v.774h-1.575v1.26h1.739v.774h-2.684v-4.686Z" transform="translate(-217.978 -83.029)"/><path class="a" d="M506.085,357.584v.138c0,.439.125.721.623.721a.54.54,0,0,0,.565-.578c0-.427-.216-.584-.84-.8-.84-.289-1.227-.637-1.227-1.418a1.285,1.285,0,0,1,1.45-1.379c.84,0,1.451.361,1.451,1.26v.131H507.2c0-.439-.151-.7-.512-.7a.484.484,0,0,0-.539.544c0,.288.085.466.486.637l.728.315a1.2,1.2,0,0,1,.892,1.24c0,.991-.6,1.438-1.628,1.438-1.07,0-1.49-.5-1.49-1.365v-.19Z" transform="translate(-225.521 -82.806)"/><path class="a" d="M518.684,357.965l-.124-1.858v-1.523h.906v1.523l-.126,1.858Zm.782,1.306h-.906V358.4h.906Z" transform="translate(-235.028 -83.029)"/><path class="a" d="M243.917,358.546h.906v.867h-.906Zm0,3.164.125-1.858h.657l.125,1.858v1.523h-.906Z" transform="translate(-40.466 -85.836)"/><path class="a" d="M250.379,354.584h.945v1.792h1.1v-1.792h.946v4.686h-.946v-2.08h-1.1v2.08h-.945Z" transform="translate(-45.043 -83.029)"/><path class="a" d="M263.461,354.583h1.168l1.241,4.687h-.984l-.217-.991h-1.247l-.217.991h-.984Zm.125,2.921h.918l-.453-2.107h-.014Z" transform="translate(-53.432 -83.028)"/><path class="a" d="M278.077,355.944c0-.682-.138-.977-.565-.977-.479,0-.59.478-.59,1.8,0,1.418.2,1.675.6,1.675.341,0,.591-.178.591-1.189h.945c0,1.011-.249,1.884-1.49,1.884-1.418,0-1.6-1.011-1.6-2.435s.177-2.435,1.6-2.435c1.352,0,1.451.991,1.451,1.673Z" transform="translate(-63.177 -82.807)"/><path class="a" d="M291.474,354.584v.774H289.8v1.1h1.576v.774H289.8v1.26h1.739v.774h-2.684v-4.686Z" transform="translate(-72.301 -83.029)"/><path class="a" d="M300.2,354.584h1.4l.669,3.308h.013l.676-3.308h1.4v4.686H303.5V355.53h-.013l-.834,3.741h-.735l-.834-3.741h-.013v3.741H300.2Z" transform="translate(-80.338 -83.029)"/><path class="a" d="M318.5,354.269c1.418,0,1.595,1.011,1.595,2.436s-.177,2.434-1.595,2.434-1.595-1.011-1.595-2.434.177-2.436,1.595-2.436m0,4.175c.558,0,.65-.479.65-1.739s-.092-1.74-.65-1.74-.65.485-.65,1.74.092,1.739.65,1.739" transform="translate(-92.172 -82.806)"/><path class="a" d="M330.525,357.584v.138c0,.439.124.721.623.721a.54.54,0,0,0,.565-.578c0-.427-.217-.584-.84-.8-.84-.289-1.227-.637-1.227-1.418a1.285,1.285,0,0,1,1.451-1.379c.84,0,1.451.361,1.451,1.26v.131h-.906c0-.439-.151-.7-.512-.7a.483.483,0,0,0-.538.544c0,.288.085.466.486.637l.728.315a1.2,1.2,0,0,1,.893,1.24c0,.991-.6,1.438-1.628,1.438-1.07,0-1.49-.5-1.49-1.365v-.19Z" transform="translate(-101.151 -82.806)"/><path class="a" d="M348.2,354.584h2.619v.774h-1.673v1.1h1.576v.774h-1.576v2.035H348.2Z" transform="translate(-114.34 -83.029)"/><path class="a" d="M358.358,354.583h1.168l1.241,4.687h-.985l-.217-.991h-1.247l-.216.991h-.984Zm.125,2.921h.919l-.453-2.107h-.013Z" transform="translate(-120.659 -83.028)"/><path class="a" d="M371.278,354.584h1.4l.669,3.308h.013l.676-3.308h1.4v4.686h-.866V355.53h-.013l-.834,3.741h-.735l-.834-3.741h-.013v3.741h-.866Z" transform="translate(-130.69 -83.029)"/><rect class="a" width="0.945" height="4.686" transform="translate(245.603 271.555)"/><path class="a" d="M394.58,359.271v-4.687h.945V358.5H397.2v.775Z" transform="translate(-147.198 -83.029)"/><rect class="a" width="0.945" height="4.686" transform="translate(250.599 271.555)"/><path class="a" d="M411.827,354.583H413l1.241,4.687h-.985l-.216-.991h-1.247l-.217.991h-.984Zm.125,2.921h.919l-.453-2.107H412.4Z" transform="translate(-158.538 -83.028)"/><path class="a" d="M424.994,357.584v.138c0,.439.125.721.623.721a.54.54,0,0,0,.565-.578c0-.427-.217-.584-.84-.8-.84-.289-1.228-.637-1.228-1.418a1.285,1.285,0,0,1,1.451-1.379c.84,0,1.45.361,1.45,1.26v.131h-.905c0-.439-.151-.7-.512-.7a.484.484,0,0,0-.539.544c0,.288.085.466.486.637l.728.315a1.2,1.2,0,0,1,.893,1.24c0,.991-.6,1.438-1.628,1.438-1.069,0-1.49-.5-1.49-1.365v-.19Z" transform="translate(-168.074 -82.806)"/><path class="a" d="M442.667,354.584h2.619v.774h-1.673v1.1h1.575v.774h-1.575v2.035h-.945Z" transform="translate(-181.264 -83.029)"/><path class="a" d="M456.16,354.584v.774h-1.674v1.1h1.575v.774h-1.575v1.26h1.739v.774h-2.684v-4.686Z" transform="translate(-188.967 -83.029)"/><path class="a" d="M464.82,359.271v-4.687h.945V358.5h1.673v.775Z" transform="translate(-196.957 -83.029)"/><rect class="a" width="0.945" height="4.686" transform="translate(271.079 271.555)"/><path class="a" d="M483.716,355.944c0-.682-.138-.977-.565-.977-.479,0-.59.478-.59,1.8,0,1.418.2,1.675.6,1.675.341,0,.591-.178.591-1.189h.945c0,1.011-.25,1.884-1.49,1.884-1.418,0-1.595-1.011-1.595-2.435s.177-2.435,1.595-2.435c1.352,0,1.451.991,1.451,1.673Z" transform="translate(-208.855 -82.807)"/><path class="a" d="M497.111,354.584v.774h-1.673v1.1h1.575v.774h-1.575v1.26h1.739v.774h-2.684v-4.686Z" transform="translate(-217.978 -83.029)"/><path class="a" d="M506.085,357.584v.138c0,.439.125.721.623.721a.54.54,0,0,0,.565-.578c0-.427-.216-.584-.84-.8-.84-.289-1.227-.637-1.227-1.418a1.285,1.285,0,0,1,1.45-1.379c.84,0,1.451.361,1.451,1.26v.131H507.2c0-.439-.151-.7-.512-.7a.484.484,0,0,0-.539.544c0,.288.085.466.486.637l.728.315a1.2,1.2,0,0,1,.892,1.24c0,.991-.6,1.438-1.628,1.438-1.07,0-1.49-.5-1.49-1.365v-.19Z" transform="translate(-225.521 -82.806)"/><path class="a" d="M518.684,357.965l-.124-1.858v-1.523h.906v1.523l-.126,1.858Zm.782,1.306h-.906V358.4h.906Z" transform="translate(-235.028 -83.029)"/></g><g transform="translate(1130.294 3517.306)"><path class="a" d="M280.615,196.175a7.345,7.345,0,0,0-7.67,7.683c-.006,4.6,3.129,7.813,7.621,7.819s7.633-3.2,7.639-7.8a7.317,7.317,0,0,0-7.59-7.7m0,2.479c2.352,0,4.732,1.81,4.727,5.247,0,3.073-2.009,5.3-4.769,5.294-2.744,0-4.73-2.233-4.725-5.306C275.847,200.453,278.244,198.65,280.611,198.655Zm14.521,10.439h-1.387l.023-18.5c0-.642-.317-.942-1-.942l-3.316,0a.532.532,0,0,0-.58.553l0,1.283a.535.535,0,0,0,.58.556H290.9l-.021,17.046-1.45,0a.534.534,0,0,0-.581.555l0,1.283a.534.534,0,0,0,.58.554l5.7.007a.534.534,0,0,0,.585-.552l0-1.285A.536.536,0,0,0,295.132,209.094Zm27.865.035-1.478,0-.02-7.5c0-3.328-2-5.4-5.233-5.4a5.572,5.572,0,0,0-4.787,2.3,4.856,4.856,0,0,0-4.468-2.308,5.6,5.6,0,0,0-4.715,2.243l.038-.947c0-.958-.551-1.09-1.147-1.09l-2.929-.005a.533.533,0,0,0-.583.551l0,1.287a.533.533,0,0,0,.581.551l1.452,0-.013,10.3-1.452,0a.534.534,0,0,0-.581.556l0,1.283a.532.532,0,0,0,.58.552l5.587.009a.525.525,0,0,0,.554-.553l0-1.285a.511.511,0,0,0-.553-.555h-1.269l.01-7.946a4.014,4.014,0,0,1,3.781-2.409c1.991,0,3.089,1.229,3.085,3.452l-.008,6.911h-1.39a.532.532,0,0,0-.583.553v1.284a.534.534,0,0,0,.582.554l5.7.006a.524.524,0,0,0,.555-.551v-1.284a.51.51,0,0,0-.552-.557l-1.478,0,.01-7.3a4.231,4.231,0,0,0-.16-1.164,3.971,3.971,0,0,1,3.49-1.892c2.531,0,3.06,1.88,3.057,3.453l-.009,7.853c0,1,.46,1.449,1.505,1.452l2.836,0a.532.532,0,0,0,.584-.55l0-1.284A.534.534,0,0,0,323,209.129Zm14.967-2.211a.611.611,0,0,0-.357-.133.55.55,0,0,0-.454.277,5.813,5.813,0,0,1-4.589,2.2,4.777,4.777,0,0,1-4.744-4.785l10.545.013a.559.559,0,0,0,.612-.576,7.871,7.871,0,0,0-1.933-5.817,6.675,6.675,0,0,0-4.909-1.858c-3.6-.005-7.242,2.633-7.25,7.682-.005,4.6,3.086,7.813,7.528,7.82a7.673,7.673,0,0,0,6.526-3.217.558.558,0,0,0-.143-.781ZM327.9,202.271a4.131,4.131,0,0,1,4.288-3.669,3.67,3.67,0,0,1,3.909,3.678Zm28.517,6.9h-1.48l.011-7.508c-.03-3.326-2.055-5.393-5.295-5.4a5.43,5.43,0,0,0-4.688,2.249l.045-1.492a.533.533,0,0,0-.583-.553l-3.492-.005a.532.532,0,0,0-.582.551l0,1.287a.532.532,0,0,0,.583.552l1.448,0-.014,10.3h-1.448a.531.531,0,0,0-.583.553v1.282a.532.532,0,0,0,.58.555l5.7.008a.536.536,0,0,0,.586-.552v-1.285a.535.535,0,0,0-.583-.556l-1.39,0,.01-7.969v0a4.008,4.008,0,0,1,3.782-2.38c1.993,0,3.089,1.229,3.086,3.452l-.009,7.852c0,.99.468,1.451,1.476,1.453l2.837,0a.535.535,0,0,0,.583-.552v-1.283A.536.536,0,0,0,356.419,209.17Zm16.736.023-1.481,0,.01-6.733c0-4.148-2.108-6.17-6.457-6.176-4.275-.005-5.91,1.9-5.948,1.951a.486.486,0,0,0-.092.747l.836,1.047a.563.563,0,0,0,.653.157.617.617,0,0,0,.213-.131,6.616,6.616,0,0,1,4.247-1.23c2.513,0,3.683,1.129,3.68,3.543v.165l-2.313,0c-5.362-.007-8.2,1.7-8.2,4.93,0,2.6,2.043,4.349,5.086,4.351a6.978,6.978,0,0,0,5.691-2.7l0,1.025c0,.988.471,1.45,1.478,1.453l2.6,0a.509.509,0,0,0,.551-.554l0-1.283A.508.508,0,0,0,373.156,209.193Zm-4.343-4.481,0,2.157a6.077,6.077,0,0,1-4.671,2.433c-1.7,0-2.884-.894-2.881-2.167,0-1.729,1.566-2.432,5.393-2.427Zm-61.67-61.736a2.019,2.019,0,0,1,1.772-.471l12.914,3.476,3.2.861a2.048,2.048,0,0,1,1.29,1.3l4.294,16.121a2,2,0,0,1-.476,1.766l-11.808,11.782a2.028,2.028,0,0,1-1.771.469l-16.11-4.334a2.032,2.032,0,0,1-1.295-1.3l-4.3-16.118a2.048,2.048,0,0,1,.477-1.768Zm.164,14.628a.683.683,0,0,1,.312-.527l3.862-2.222.952-.553a.684.684,0,0,1,.613,0l4.813,2.788a.691.691,0,0,1,.3.529l-.008,5.559a.691.691,0,0,1-.3.529l-4.82,2.776a.67.67,0,0,1-.613,0l-4.809-2.79a.675.675,0,0,1-.311-.527Zm-.122-8.073a1.348,1.348,0,0,0-1.056.611l-4.469,7.714-1.106,1.91a1.378,1.378,0,0,0,0,1.225l5.551,9.636a1.347,1.347,0,0,0,1.054.611l11.123.014a1.355,1.355,0,0,0,1.058-.608l5.576-9.623a1.394,1.394,0,0,0,0-1.226l-5.552-9.636a1.356,1.356,0,0,0-1.056-.613Zm6.8-13.546a2.7,2.7,0,0,0-2.444,0L296.057,144.9l-3.833,2.205A2.765,2.765,0,0,0,291,149.226l-.022,22.284a2.7,2.7,0,0,0,1.217,2.117l19.289,11.168a2.72,2.72,0,0,0,2.446,0l19.318-11.112a2.8,2.8,0,0,0,1.23-2.126l.019-22.284a2.716,2.716,0,0,0-1.217-2.121Zm-42.6,69.712-1.232-.824a.519.519,0,0,0-.346-.141.6.6,0,0,0-.518.369c-.788,1.364-2.763,3.662-7.121,3.657-3.517-.005-7.3-2.6-7.292-8.268.008-5.653,3.751-8.221,7.221-8.217,3.749.005,6.134,2.723,6.131,4.143v.268a.537.537,0,0,0,.556.584l1.88,0a.552.552,0,0,0,.582-.58l.009-6.509a.535.535,0,0,0-.582-.557h-1.673a.552.552,0,0,0-.441.172.467.467,0,0,0-.111.383l.019,2.042a7.9,7.9,0,0,0-6.516-2.785c-6.712-.009-10.233,5.508-10.24,10.96-.008,6.513,4.35,11.25,10.362,11.258,1.14,0,6.945-.24,9.467-5.112A.6.6,0,0,0,271.381,205.7Z" transform="translate(0)"/><path class="a" d="M423.3,338.744a6.449,6.449,0,0,1-2.672.508c-2.5,0-3.84-1-3.846-4.342,0-2.836,1.249-4.34,3.588-4.34s3.342,1.349,3.342,3.6a4.846,4.846,0,0,1-.079.82l-5.685,0c0,2.586,1.022,3.255,2.678,3.253a7.527,7.527,0,0,0,2.419-.419c-.014,0,.254.916.254.916M418,333.992l4.549-.007c-.084-1.566-.751-2.418-2.17-2.417C419.121,331.568,418.2,332.24,418,333.992Zm9.314,2.646a1.312,1.312,0,0,0,0,1.27l3,0c2.173,0,2.709,1.5,2.509,2.671-.25,1.5-1.717,2.586-4.34,2.591-1.817,0-3.336-.783-3.336-2.255a2.346,2.346,0,0,1,1.332-2.251,1.361,1.361,0,0,1-.419-1.337,1.588,1.588,0,0,1,.547-.936,2.614,2.614,0,0,1-1.4-2.569c0-2.307,1.217-3.256,3.6-3.258a3.687,3.687,0,0,1,1.889.43l1.434-1.834.866.966-1.68,1.4a2.972,2.972,0,0,1,.665,1.955c.005,2.3-1.211,3.255-3.6,3.255A5,5,0,0,1,427.31,336.638Zm-1,4.194c0,.583.416,1.336,2.419,1.332,1.172,0,2.589-.506,2.839-1.423s-.2-1.753-1.506-1.753l-3,0A2.294,2.294,0,0,0,426.312,340.832Zm2.164-5.015c1.72,0,2.3-.8,2.3-2.337,0-1.271-.413-2.007-2.1-2.005-1.722,0-2.272.806-2.272,2.34C426.41,335.086,426.788,335.82,428.475,335.817Zm11.4,1.83v-6.928h1.168l.007,8.345h-1.171V338.4H439.8a4.788,4.788,0,0,1-2.671.836c-1.834,0-2.755-.982-2.756-2.866l-.007-5.646h1.168l0,5.139c0,1.337.424,2.373,1.844,2.373A5.56,5.56,0,0,0,439.878,337.647Zm7.85-5.934a7.391,7.391,0,0,0-2.758.422l.007,6.928H443.81l-.011-8.347h1.168v.665h.086a4.8,4.8,0,0,1,2.671-.834Zm5-1.171c2.338,0,3.512,1.247,3.514,4.17s-1,4.508-3.84,4.512c-2.338,0-3.5-1.248-3.508-4.17S449.893,330.542,452.73,330.542Zm-.241,7.764c2,0,2.586-1.422,2.583-3.592,0-1.922-.423-3.257-2.424-3.256s-2.585,1.425-2.581,3.593C450.066,336.969,450.483,338.307,452.488,338.306Zm5.507-.506a8.039,8.039,0,0,0,2.253.413c1.172,0,2.091-.416,2.091-1.421s-1.005-1.3-2.178-1.581c-1.313-.316-2.417-.835-2.421-2.335,0-1.671,1.252-2.338,3.174-2.341a7.14,7.14,0,0,1,2.167.416l-.246,1a6.263,6.263,0,0,0-2.09-.418c-1.166,0-1.836.422-1.836,1.258,0,1,.717,1.133,2.09,1.5,1.3.346,2.5.746,2.5,2.413,0,1.756-1.482,2.509-3.335,2.512a9.9,9.9,0,0,1-2.419-.416Zm-49.464-.211a9.583,9.583,0,0,0,3.023.581c1.6,0,2.484-.751,2.48-2,0-1.42-1.183-1.9-2.6-2.3-1.923-.534-3.189-1.219-3.189-3.1,0-1.923,1.564-3.025,3.652-3.028a8.5,8.5,0,0,1,2.884.5l-.329,1.087a8.523,8.523,0,0,0-2.605-.5c-1.333,0-2.37.552-2.37,1.722,0,1.352,1.2,1.82,2.589,2.235,2.023.6,3.225,1.467,3.225,3.219,0,2.088-1.631,3.258-3.754,3.261a7.6,7.6,0,0,1-3.336-.665Z" transform="translate(-90.334 -110.857)"/></g></g></svg>