<?xml version="1.0" encoding="utf-8"?>
<!-- Generator: Adobe Illustrator 19.0.0, SVG Export Plug-In . SVG Version: 6.00 Build 0)  -->
<svg version="1.1" xmlns="http://www.w3.org/2000/svg" xmlns:xlink="http://www.w3.org/1999/xlink" x="0px" y="0px"
	 viewBox="659.2 215.7 130 130" style="enable-background:new 659.2 215.7 130 130;" xml:space="preserve">
<style type="text/css">
	.st0{fill:#CFCFCF;}
	.st1{display:none;}
</style>
<g id="Capa_1">
	<g transform="translate(18.882 3588.846)">
		<path class="st0" d="M692.4-3322.9c2.4,4.5,7,7.3,12.1,7.3c7.7-0.1,13.8-6.4,13.8-14.1c0-1.2-0.1-2.4-0.4-3.5
			c6.7,0.5,13.1,2,11.5,6.4c-2.5,6.8-25.2,16-44.3,17.3c17.1,5.1,59.3-3.4,59-17.7c-0.1-8-15.3-8.3-26.6-7.4
			c-2.5-7.1-10.4-10.9-17.5-8.3c-5.6,2-9.3,7.3-9.1,13.3c0,1.8,0.3,3.5,1,5.2c-7-0.6-14.3-2.3-12.4-6.9c2.7-6.7,25.7-17.5,44.8-18.1
			c-24.9-3.9-58.6,8.7-58.8,19.6C665.2-3322,681.1-3321.9,692.4-3322.9"/>
		<path class="st0" d="M681.2-3284.7l1.4-11.3l1.3,11.3H681.2z M684.7-3278.1h3.3l-3.2-22.5h-4.4l-3.1,22.5h3.1l0.4-3.5h3.5
			L684.7-3278.1z"/>
		<path class="st0" d="M692.9-3297.5h1.6c0.8,0,1.3,0.4,1.3,1.3v4.8c0.1,0.7-0.3,1.3-1,1.4c-0.1,0-0.2,0-0.4,0h-1.5L692.9-3297.5z
			 M692.9-3287.1h1.5c1,0,1.4,0.4,1.4,1.4v7.6h3.4v-7.7c0-1.7-0.6-2.6-1.9-3c1.2-0.5,1.9-1.5,1.9-3.5v-4.2c0-2.8-1.3-4.2-4.1-4.2
			h-5.5v22.5h3.4L692.9-3287.1z"/>
		<path class="st0" d="M704.4-3284.7l1.4-11.3l1.3,11.3H704.4z M703.6-3300.6l-3.1,22.5h3.1l0.4-3.5h3.5l0.4,3.5h3.3l-3.2-22.5
			H703.6z"/>
		<path class="st0" d="M718.9-3282.2c0,0.9-0.4,1.3-1.3,1.3H717c-0.9,0-1.3-0.4-1.3-1.3v-14.2c0-0.9,0.4-1.3,1.3-1.3h0.6
			c0.8,0,1.3,0.4,1.3,1.3v4.4h3.3v-4.6c0-2.8-1.3-4.1-4-4.1h-1.6c-2.7,0-4.1,1.4-4.1,4.2v14.5c0,2.8,1.3,4.2,4.1,4.2h1.7
			c2.7,0,4.1-1.4,4.1-4.2v-5.2h-3.3L718.9-3282.2z"/>
		<path class="st0" d="M730.7-3282.2c0,0.9-0.4,1.3-1.3,1.3h-0.7c-0.9,0-1.3-0.4-1.3-1.3v-14.2c0-0.9,0.4-1.3,1.3-1.3h0.7
			c0.8,0,1.3,0.4,1.3,1.3V-3282.2z M730-3300.8h-1.8c-2.7,0-4.1,1.4-4.1,4.2v14.5c0,2.8,1.3,4.2,4.1,4.2h1.8c2.7,0,4.1-1.4,4.1-4.2
			v-14.5C734.1-3299.4,732.7-3300.8,730-3300.8"/>
		<path class="st0" d="M735.9-3300.6v22.5h7v-3.1h-3.7v-19.4L735.9-3300.6z"/>
		<path class="st0" d="M676.2-3292v-4.6c0-2.8-1.3-4.1-4-4.1h-1.6c-2.7,0-4.1,1.4-4.1,4.2v14.5c0,2.8,1.3,4.2,4.1,4.2h1.7
			c2.7,0,4.1-1.4,4.1-4.2v-5.2h-3.3v5.1c0,0.9-0.4,1.3-1.3,1.3h-0.6c-0.9,0-1.3-0.4-1.3-1.3v-14.2c0-0.9,0.4-1.3,1.3-1.3h0.6
			c0.8,0,1.3,0.4,1.3,1.3v4.4L676.2-3292z"/>
		<path class="st0" d="M668.9-3266.3v-6.3h-2.4v-1.6h6.9v1.6h-2.4v6.3L668.9-3266.3z"/>
		<path class="st0" d="M675.2-3266.3v-7.9h5.9v1.6h-3.9v1.6h3.4v1.6h-3.4v1.5h3.9v1.6L675.2-3266.3z"/>
		<path class="st0" d="M683.3-3266.3v-7.9h2v6.3h3.7v1.6L683.3-3266.3z"/>
		<path class="st0" d="M690.8-3266.3v-7.9h5.9v1.6h-3.9v1.6h3.4v1.6h-3.4v1.5h3.9v1.6L690.8-3266.3z"/>
		<path class="st0" d="M704.4-3274.2h2.1l-2.9,7.9h-2.4l-2.9-7.9h2.2l1.9,5.6L704.4-3274.2z"/>
		<rect x="708.2" y="-3274.2" class="st0" width="2.1" height="7.9"/>
		<path class="st0" d="M712.3-3267.7l1.2-1.3c0.5,0.7,1.3,1.1,2.1,1.2c0.6,0,0.9-0.3,0.9-0.7c0-0.3-0.2-0.6-0.4-0.7
			c-0.1-0.1-0.3-0.1-0.4-0.2c-0.1,0-0.3-0.1-0.5-0.1c-0.2-0.1-0.4-0.1-0.4-0.1c-1.2-0.2-2.1-1.2-2.1-2.4c0-1.8,1.5-2.3,3.1-2.3
			c1,0,2,0.3,2.9,1l-0.9,1.4c-0.2-0.2-0.4-0.3-0.5-0.4c-0.2-0.1-0.4-0.2-0.6-0.3c-0.3-0.1-0.5-0.2-0.8-0.2c-0.6,0-0.9,0.2-0.9,0.7
			c0,0.2,0.1,0.4,0.3,0.6c0.3,0.2,0.7,0.3,1.1,0.4l0.7,0.2c0.2,0.1,0.4,0.1,0.6,0.2c0.2,0.1,0.4,0.2,0.5,0.3c0.5,0.4,0.8,1,0.8,1.7
			c0,1.9-1.5,2.4-3.1,2.4C714.3-3266.2,713.1-3266.7,712.3-3267.7"/>
		<rect x="720.9" y="-3274.2" class="st0" width="2.1" height="7.9"/>
		<path class="st0" d="M728.9-3275l0.9-1.6h1.8l-1.3,1.6H728.9z M731.2-3268.6c0.8-1,0.8-2.4,0-3.3c-0.4-0.4-1-0.7-1.6-0.7
			c-0.6,0-1.2,0.2-1.6,0.7c-0.8,1-0.8,2.4,0,3.3c0.4,0.4,1,0.7,1.6,0.6C730.1-3267.9,730.7-3268.2,731.2-3268.6 M726.4-3267.3
			c-1.6-1.6-1.6-4.2,0-5.9c1.8-1.6,4.5-1.6,6.3,0c1.6,1.6,1.6,4.2,0,5.9C730.9-3265.8,728.2-3265.8,726.4-3267.3"/>
		<path class="st0" d="M741-3274.2h1.9v7.9h-1.6l-3.8-4.9c0.1,1,0.1,1.6,0.1,1.9v3h-1.9l0-7.9h1.6l3.7,4.7c0-0.5-0.1-1.3-0.1-2.3
			L741-3274.2z"/>
	</g>
</g>
<g id="Capa_2" class="st1">
</g>
<g id="Capa_3" class="st1">
</g>
<g id="Capa_4" class="st1">
</g>
<g id="Capa_5" class="st1">
</g>
</svg>
