<?xml version="1.0" encoding="utf-8"?>
<!-- Generator: Adobe Illustrator 19.0.0, SVG Export Plug-In . SVG Version: 6.00 Build 0)  -->
<svg version="1.1" id="Capa_1" xmlns="http://www.w3.org/2000/svg" xmlns:xlink="http://www.w3.org/1999/xlink" x="0px" y="0px"
	 viewBox="546.6 232.4 355.2 96.6" style="enable-background:new 546.6 232.4 355.2 96.6;" xml:space="preserve">
<style type="text/css">
	.st0{fill:#CBCBCB;}
</style>
<g>
	<path class="st0" d="M573.7,265.8c2.4,4.5,7,7.3,12.1,7.3c7.7-0.1,13.8-6.4,13.8-14c0-1.2-0.1-2.4-0.4-3.5c6.7,0.5,13.1,2,11.5,6.4
		c-2.5,6.8-25.2,16-44.3,17.3c17.1,5.1,59.3-3.4,59-17.7c-0.1-8-15.3-8.3-26.6-7.4c-2.5-7.1-10.4-10.9-17.5-8.3
		c-5.6,2-9.3,7.3-9.1,13.3c0,1.8,0.3,3.5,1,5.2c-7-0.6-14.3-2.3-12.4-6.9c2.7-6.7,25.7-17.5,44.8-18.1c-24.9-3.9-58.6,8.7-58.8,19.6
		C546.4,266.7,562.4,266.8,573.7,265.8"/>
	<path class="st0" d="M562.5,304l1.4-11.3l1.3,11.3H562.5z M566,310.6h3.3l-3.2-22.5h-4.4l-3.1,22.5h3.1l0.4-3.5h3.5L566,310.6z"/>
	<path class="st0" d="M574.1,291.2h1.6c0.8,0,1.3,0.4,1.3,1.3v4.8c0.1,0.7-0.3,1.3-1,1.4c-0.1,0-0.2,0-0.4,0h-1.5L574.1,291.2z
		 M574.1,301.6h1.5c1,0,1.4,0.4,1.4,1.4v7.6h3.4V303c0-1.7-0.6-2.6-1.9-3c1.2-0.5,1.9-1.5,1.9-3.5v-4.2c0-2.8-1.3-4.2-4.1-4.2h-5.5
		v22.5h3.4L574.1,301.6z"/>
	<path class="st0" d="M585.7,304l1.4-11.3l1.3,11.3H585.7z M584.9,288.1l-3.1,22.5h3.1l0.4-3.5h3.5l0.4,3.5h3.3l-3.2-22.5H584.9z"/>
	<path class="st0" d="M600.2,306.5c0,0.9-0.4,1.3-1.3,1.3h-0.6c-0.9,0-1.3-0.4-1.3-1.3v-14.2c0-0.9,0.4-1.3,1.3-1.3h0.6
		c0.8,0,1.3,0.4,1.3,1.3v4.4h3.3v-4.6c0-2.8-1.3-4.1-4-4.1h-1.6c-2.7,0-4.1,1.4-4.1,4.2v14.5c0,2.8,1.3,4.2,4.1,4.2h1.7
		c2.7,0,4.1-1.4,4.1-4.2v-5.2h-3.3L600.2,306.5z"/>
	<path class="st0" d="M612,306.5c0,0.9-0.4,1.3-1.3,1.3h-0.7c-0.9,0-1.3-0.4-1.3-1.3v-14.2c0-0.9,0.4-1.3,1.3-1.3h0.7
		c0.8,0,1.3,0.4,1.3,1.3V306.5z M611.3,287.9h-1.8c-2.7,0-4.1,1.4-4.1,4.2v14.5c0,2.8,1.3,4.2,4.1,4.2h1.8c2.7,0,4.1-1.4,4.1-4.2
		v-14.5C615.4,289.3,614,287.9,611.3,287.9"/>
	<path class="st0" d="M617.2,288.1v22.5h7v-3.1h-3.7v-19.4L617.2,288.1z"/>
	<path class="st0" d="M557.4,296.7v-4.6c0-2.8-1.3-4.1-4-4.1h-1.6c-2.7,0-4.1,1.4-4.1,4.2v14.5c0,2.8,1.3,4.2,4.1,4.2h1.7
		c2.7,0,4.1-1.4,4.1-4.2v-5.2h-3.3v5.1c0,0.9-0.4,1.3-1.3,1.3h-0.6c-0.9,0-1.3-0.4-1.3-1.3v-14.2c0-0.9,0.4-1.3,1.3-1.3h0.6
		c0.8,0,1.3,0.4,1.3,1.3v4.4L557.4,296.7z"/>
	<path class="st0" d="M550.1,322.4v-6.3h-2.4v-1.6h6.9v1.6h-2.4v6.3L550.1,322.4z"/>
	<path class="st0" d="M556.5,322.4v-7.9h5.9v1.6h-3.9v1.6h3.4v1.6h-3.4v1.5h3.9v1.6L556.5,322.4z"/>
	<path class="st0" d="M564.5,322.4v-7.9h2v6.3h3.7v1.6L564.5,322.4z"/>
	<path class="st0" d="M572.1,322.4v-7.9h5.9v1.6h-3.9v1.6h3.4v1.6h-3.4v1.5h3.9v1.6L572.1,322.4z"/>
	<path class="st0" d="M585.6,314.5h2.1l-2.9,7.9h-2.4l-2.9-7.9h2.2l1.9,5.6L585.6,314.5z"/>
	<rect x="589.5" y="314.5" class="st0" width="2.1" height="7.9"/>
	<path class="st0" d="M593.6,321l1.2-1.3c0.5,0.7,1.3,1.1,2.1,1.2c0.6,0,0.9-0.3,0.9-0.7c0-0.3-0.2-0.6-0.4-0.7
		c-0.1-0.1-0.3-0.1-0.4-0.2c-0.1,0-0.3-0.1-0.5-0.1c-0.2-0.1-0.4-0.1-0.4-0.1c-1.2-0.2-2.1-1.2-2.1-2.4c0-1.8,1.5-2.3,3.1-2.3
		c1,0,2,0.3,2.9,1l-0.9,1.4c-0.2-0.2-0.4-0.3-0.5-0.4c-0.2-0.1-0.4-0.2-0.6-0.3c-0.3-0.1-0.5-0.2-0.8-0.2c-0.6,0-0.9,0.2-0.9,0.7
		c0,0.2,0.1,0.4,0.3,0.6c0.3,0.2,0.7,0.3,1.1,0.4l0.7,0.2c0.2,0.1,0.4,0.1,0.6,0.2c0.2,0.1,0.4,0.2,0.5,0.3c0.5,0.4,0.8,1,0.8,1.7
		c0,1.9-1.5,2.4-3.1,2.4C595.6,322.5,594.4,322,593.6,321"/>
	<rect x="602.2" y="314.5" class="st0" width="2.1" height="7.9"/>
	<path class="st0" d="M610.1,313.7l0.9-1.6h1.8l-1.3,1.6H610.1z M612.4,320.1c0.8-1,0.8-2.4,0-3.3c-0.4-0.4-1-0.7-1.6-0.7
		c-0.6,0-1.2,0.2-1.6,0.7c-0.8,1-0.8,2.4,0,3.3c0.4,0.4,1,0.7,1.6,0.6C611.4,320.8,612,320.5,612.4,320.1 M607.6,321.4
		c-1.6-1.6-1.6-4.2,0-5.9c1.8-1.6,4.5-1.6,6.3,0c1.6,1.6,1.6,4.2,0,5.9C612.1,322.9,609.4,322.9,607.6,321.4"/>
	<path class="st0" d="M622.3,314.5h1.9v7.9h-1.6l-3.8-4.9c0.1,1,0.1,1.6,0.1,1.9v3H617l0-7.9h1.6l3.7,4.7c0-0.5-0.1-1.3-0.1-2.3
		L622.3,314.5z"/>
	<path class="st0" d="M881.5,267.1v-0.3l0-0.3l0-0.3l0-0.3l0-0.3l0-0.3l0-0.3l0.1-0.3l0.1-0.3l0.1-0.3l0.1-0.3l0.1-0.3l0.1-0.3
		l0.1-0.3l0.1-0.3l0.1-0.3l0.1-0.3l0.1-0.3l0.1-0.3l0.2-0.3l0.2-0.3l0.1-0.3l0.2-0.3l0.2-0.3l0.2-0.3l0.2-0.3l0.2-0.3l0.2-0.3
		l0.2-0.2l0.2-0.3l0.2-0.3l0.2-0.2l0.2-0.2l0.2-0.2l0.2-0.2l0.3-0.2l0.2-0.2l0.3-0.2l0.3-0.2l0.3-0.2l0.3-0.2l0.2-0.2l0.3-0.2
		l0.3-0.2l0.3-0.2l0.3-0.1l0.3-0.1l0.3-0.1l0.3-0.1l0.3-0.1l0.3-0.1l0.3-0.1l0.3-0.1l0.3-0.1l0.3-0.1l0.3-0.1l0.3-0.1l0.3,0l0.3-0.1
		l0.3,0l0.3,0l0.3,0l0.3,0h0.3h7.3v-10.4h-7.3l-0.6,0h-0.6l-0.6,0l-0.6,0l-0.6,0.1l-0.6,0.1l-0.6,0.1l-0.6,0.1l-0.6,0.1l-0.6,0.1
		l-0.6,0.1l-0.6,0.2l-0.5,0.2l-0.5,0.2l-0.5,0.2l-0.5,0.2l-0.5,0.2l-0.5,0.2l-0.5,0.3l-0.5,0.2l-0.5,0.3l-0.5,0.3l-0.5,0.3l-0.5,0.3
		l-0.5,0.3l-0.5,0.3l-0.5,0.3l-0.5,0.4l-0.5,0.4l-0.5,0.4l-0.4,0.4l-0.4,0.4l-0.4,0.4l-0.4,0.4l-0.4,0.4l-0.4,0.4l-0.4,0.4l-0.3,0.5
		l-0.3,0.5l-0.3,0.5l-0.3,0.5l-0.3,0.5l-0.3,0.5l-0.3,0.5l-0.3,0.5l-0.3,0.5l-0.2,0.5l-0.2,0.5l-0.2,0.5l-0.2,0.5l-0.2,0.5l-0.2,0.5
		l-0.2,0.5l-0.1,0.5l-0.1,0.6l-0.1,0.6l-0.1,0.6l-0.1,0.6l-0.1,0.6l-0.1,0.6l-0.1,0.6l0,0.6v0.6l0,0.6v23.5h10.9l0-10.3L881.5,267.1
		z"/>
	<path class="st0" d="M869.4,267.1v23.4h-10.9v-11.3h0v-12.6l0-0.3l0-0.3l0-0.3l0-0.3l0-0.3l-0.1-0.3l0-0.3l-0.1-0.3l-0.1-0.3
		l-0.1-0.3l-0.1-0.3l-0.1-0.3l-0.1-0.3l-0.1-0.3l-0.1-0.3l-0.1-0.3l-0.1-0.3l-0.1-0.3l-0.1-0.3l-0.2-0.3l-0.2-0.3l-0.2-0.3l-0.2-0.3
		l-0.2-0.3l-0.2-0.3l-0.2-0.3l-0.2-0.3l-0.2-0.3l-0.2-0.2l-0.2-0.3l-0.2-0.2l-0.2-0.3l-0.2-0.2l-0.3-0.2l-0.2-0.2l-0.3-0.2l-0.3-0.2
		L853,256l-0.3-0.2l-0.3-0.2l-0.3-0.2l-0.3-0.2l-0.3-0.2l-0.3-0.2l-0.3-0.1l-0.3-0.1l-0.3-0.1l-0.3-0.1l-0.3-0.1l-0.3-0.1l-0.3-0.1
		L849,254l-0.3-0.1l-0.3-0.1l-0.3-0.1l-0.3-0.1l-0.3-0.1l-0.3,0l-0.3,0l-0.3,0l-0.3,0h-0.3l-0.3,0l-0.4,0h-0.3l-0.3,0l-0.3,0l-0.3,0
		l-0.3,0l-0.3,0.1l-0.3,0.1l-0.3,0.1l-0.3,0.1l-0.3,0.1l-0.3,0.1l-0.3,0.1l-0.3,0.1l-0.3,0.1l-0.3,0.1l-0.3,0.1l-0.3,0.1l-0.3,0.1
		l-0.3,0.2l-0.3,0.2l-0.3,0.2l-0.3,0.2l-0.3,0.2l-0.2,0.2l-0.3,0.2l-0.3,0.2l-0.3,0.2l-0.2,0.2l-0.3,0.2l-0.2,0.2l-0.2,0.3l-0.2,0.2
		l-0.2,0.3l-0.2,0.2l-0.2,0.3l-0.2,0.3l-0.2,0.3l-0.2,0.3l-0.2,0.3l-0.2,0.3l-0.2,0.3l-0.2,0.3l-0.2,0.3l-0.1,0.3l-0.1,0.3l-0.1,0.3
		l-0.1,0.3l-0.1,0.3l-0.1,0.3l-0.1,0.3l-0.1,0.3l-0.1,0.3l-0.1,0.3l-0.1,0.3l-0.1,0.3l0,0.3l-0.1,0.3l0,0.3l0,0.3l0,0.3l0,0.3l0,0.3
		v0.7l0,0.3l0,0.3l0,0.3l0,0.3l0,0.3l0.1,0.3l0,0.3l0.1,0.3l0.1,0.3l0.1,0.3l0.1,0.3l0.1,0.3l0.1,0.3l0.1,0.3l0.1,0.3l0.1,0.3
		l0.1,0.3l0.1,0.3l0.1,0.3l0.2,0.3l0.2,0.3l0.2,0.3l0.2,0.3l0.2,0.3l0.2,0.3l0.2,0.3l0.2,0.3l0.2,0.3l0.2,0.2l0.2,0.3l0.2,0.2
		l0.2,0.3l0.2,0.2l0.3,0.2l0.2,0.2l0.3,0.2l0.3,0.2l0.3,0.2l0.2,0.2l0.3,0.2l0.3,0.2l0.3,0.2l0.3,0.2l0.3,0.1l0.3,0.1l0.3,0.1
		l0.3,0.1l0.3,0.1l0.3,0.1l0.3,0.1l0.3,0.1l0.3,0.1l0.3,0.1l0.3,0.1l0.3,0.1l0.3,0.1l0.3,0l0.3,0l0.3,0l0.3,0l0.3,0l0.3,0l0.4,0
		h10.1v10.2H845l-0.6,0l-0.6,0l-0.6-0.1l-0.6-0.1l-0.6-0.1l-0.6-0.1l-0.6-0.1l-0.6-0.1l-0.6-0.1l-0.6-0.1l-0.6-0.1l-0.5-0.2
		l-0.5-0.2L837,289l-0.5-0.2l-0.5-0.2l-0.5-0.2l-0.5-0.2l-0.5-0.3l-0.5-0.3l-0.5-0.3L833,287l-0.5-0.3l-0.5-0.3l-0.5-0.3l-0.5-0.4
		l-0.5-0.4l-0.5-0.4l-0.5-0.4l-0.4-0.4l-0.4-0.4l-0.4-0.4l-0.4-0.4l-0.4-0.4l-0.4-0.4l-0.4-0.5l-0.4-0.5l-0.3-0.5l-0.3-0.5l-0.3-0.5
		l-0.3-0.5l-0.3-0.5l-0.3-0.5l-0.3-0.5l-0.3-0.5l-0.2-0.5l-0.2-0.5l-0.2-0.5l-0.2-0.5l-0.2-0.5l-0.2-0.5l-0.1-0.5l-0.2-0.5l-0.1-0.6
		l-0.1-0.5l-0.1-0.6l-0.1-0.6l-0.1-0.6l-0.1-0.6l0-0.6l0-0.6l0-0.6l0-0.6l0-0.6l0-0.6l0-0.6l0-0.6l0.1-0.6l0.1-0.6l0.1-0.6l0.1-0.6
		l0.1-0.6l0.1-0.6l0.2-0.5l0.1-0.6l0.2-0.5l0.2-0.5l0.2-0.5l0.2-0.5l0.2-0.5l0.2-0.5l0.3-0.5l0.3-0.5l0.3-0.5l0.3-0.5l0.3-0.5
		l0.3-0.5l0.3-0.5l0.3-0.5l0.4-0.5l0.4-0.4l0.4-0.5l0.4-0.5l0.4-0.4l0.4-0.4l0.4-0.4l0.4-0.4l0.5-0.4l0.5-0.4l0.5-0.4l0.5-0.4
		l0.5-0.3l0.5-0.3l0.5-0.3l0.5-0.3l0.5-0.3l0.5-0.3l0.5-0.3l0.5-0.2l0.5-0.2l0.5-0.2l0.5-0.2l0.5-0.2l0.5-0.2l0.5-0.2l0.6-0.2
		l0.6-0.2l0.6-0.1l0.6-0.1l0.6-0.1l0.6-0.1l0.6-0.1l0.6-0.1l0.6-0.1l0.6,0h0.6l0.6,0l0.6,0h0.6l0.6,0l0.6,0.1l0.6,0.1l0.6,0.1
		l0.6,0.1l0.6,0.1l0.6,0.1l0.6,0.1l0.6,0.2l0.6,0.2l0.5,0.2l0.5,0.2l0.5,0.2l0.5,0.2l0.5,0.2l0.5,0.2l0.5,0.2l0.5,0.3l0.5,0.3
		l0.5,0.3l0.5,0.3l0.5,0.3l0.5,0.3l0.5,0.3l0.5,0.4l0.5,0.4l0.5,0.4l0.5,0.4l0.5,0.4l0.4,0.4l0.4,0.4l0.4,0.4l0.4,0.5l0.4,0.5
		l0.4,0.4l0.4,0.5l0.4,0.5l0.3,0.5l0.3,0.5l0.3,0.5l0.3,0.5l0.3,0.5l0.3,0.5l0.3,0.5l0.2,0.5l0.2,0.5l0.2,0.5l0.2,0.5l0.2,0.5
		l0.2,0.5l0.2,0.6l0.1,0.5l0.1,0.6l0.1,0.6l0.1,0.6l0.1,0.6l0.1,0.6l0.1,0.6l0,0.6l0,0.6l0,0.6L869.4,267.1z"/>
	<path class="st0" d="M824.4,318.5H822v-17.7h2.4v5.8c0.4-0.6,0.9-1,1.5-1.3c0.7-0.3,1.4-0.5,2.2-0.4c1.4-0.1,2.8,0.5,3.8,1.6
		c1,1.2,1.4,2.8,1.3,4.4v7.7h-2.4v-6.9c0.1-1.2-0.2-2.3-0.8-3.3c-0.5-0.7-1.4-1.1-2.3-1.1c-1.2,0-2.3,0.6-2.8,1.7
		c-0.2,0.4-0.3,0.8-0.4,1.2c-0.1,0.8-0.1,1.5-0.1,2.3L824.4,318.5z"/>
	<path class="st0" d="M835.3,311.8c0-0.9,0.2-1.8,0.5-2.7c0.3-0.8,0.8-1.6,1.4-2.2c0.6-0.7,1.4-1.3,2.3-1.7c0.8-0.4,1.7-0.6,2.6-0.6
		c1.9,0,3.7,0.7,5,2.1c0.6,0.7,1.2,1.4,1.5,2.3c0.4,0.8,0.5,1.7,0.5,2.6c0,0.9-0.2,1.8-0.5,2.7c-0.7,1.8-2,3.2-3.7,4
		c-0.8,0.4-1.8,0.6-2.7,0.6c-0.9,0-1.9-0.2-2.7-0.5c-0.8-0.4-1.6-0.9-2.2-1.6c-0.6-0.7-1.1-1.4-1.5-2.3
		C835.5,313.6,835.3,312.7,835.3,311.8 M837.8,311.8c0,1.2,0.4,2.4,1.3,3.3c0.8,0.9,2,1.4,3.2,1.3c1.2,0,2.3-0.5,3.1-1.3
		c1.7-1.9,1.7-4.8,0-6.7c-1.7-1.7-4.5-1.8-6.2-0.1c0,0-0.1,0.1-0.1,0.1C838.2,309.3,837.8,310.5,837.8,311.8L837.8,311.8z"/>
	<path class="st0" d="M852,318.5v-11.2h-1.9v-2.2h1.9v-4.3h2.4v4.3h1.9v2.2h-1.9v11.2L852,318.5z"/>
	<path class="st0" d="M859.8,312.7c0.2,1.1,0.7,2,1.5,2.7c0.8,0.7,1.8,1.1,2.9,1c1.6,0,3-0.8,3.7-2.2h2.7c-0.5,1.4-1.4,2.5-2.6,3.4
		c-1.1,0.8-2.5,1.2-3.9,1.2c-0.9,0-1.9-0.2-2.7-0.5c-0.8-0.4-1.6-0.9-2.2-1.6c-0.6-0.7-1.1-1.4-1.5-2.3c-0.3-0.8-0.5-1.8-0.5-2.7
		c0-0.9,0.2-1.8,0.5-2.6c0.3-0.8,0.8-1.6,1.4-2.2c1.3-1.4,3.1-2.2,5-2.2c1.1,0,2.3,0.3,3.3,0.8c1,0.5,1.9,1.3,2.5,2.3
		c0.4,0.6,0.7,1.3,0.9,2c0.2,0.8,0.3,1.7,0.3,2.5v0.4L859.8,312.7z M868.4,310.5c-0.2-1-0.8-1.9-1.6-2.6c-0.7-0.6-1.7-0.9-2.7-0.9
		c-1,0-2,0.3-2.7,0.9c-0.8,0.6-1.4,1.5-1.6,2.5H868.4z"/>
	<rect x="873.2" y="300.8" class="st0" width="2.4" height="17.7"/>
	<path class="st0" d="M880.2,312.7c0.2,1.1,0.7,2,1.5,2.7c1.4,1.2,3.4,1.4,5,0.5c0.7-0.4,1.2-0.9,1.6-1.6h2.7
		c-0.5,1.4-1.4,2.5-2.6,3.4c-1.1,0.8-2.5,1.2-3.9,1.2c-0.9,0-1.9-0.2-2.7-0.5c-0.8-0.4-1.6-0.9-2.2-1.6c-0.6-0.7-1.1-1.4-1.5-2.3
		c-0.3-0.8-0.5-1.8-0.5-2.7c0-0.9,0.2-1.8,0.5-2.6c0.3-0.8,0.8-1.6,1.4-2.2c1.3-1.4,3.1-2.2,5-2.2c1.1,0,2.3,0.3,3.3,0.8
		c1,0.5,1.9,1.3,2.5,2.3c0.4,0.6,0.7,1.3,0.9,2c0.2,0.8,0.3,1.7,0.3,2.5v0.4L880.2,312.7z M888.8,310.5c-0.2-1-0.8-1.9-1.6-2.6
		c-0.7-0.6-1.7-0.9-2.6-0.9c-1,0-2,0.3-2.7,0.9c-0.8,0.6-1.4,1.5-1.6,2.5H888.8z"/>
	<path class="st0" d="M892.6,314.2h2.3c0,0.6,0.2,1.3,0.6,1.7c0.4,0.4,0.9,0.7,1.5,0.7c0.5,0,1-0.2,1.4-0.5c0.4-0.3,0.6-0.8,0.5-1.3
		c0-0.4-0.1-0.8-0.4-1.2c-0.3-0.4-0.8-0.7-1.2-0.8c-0.2-0.1-0.5-0.2-0.8-0.3c-0.6-0.2-1.2-0.5-1.8-0.9c-0.4-0.3-0.8-0.8-1.1-1.3
		c-0.2-0.5-0.4-1.1-0.3-1.7c0-2.2,1.7-3.9,3.9-3.9c0,0,0,0,0,0c1-0.1,2,0.3,2.7,1c0.7,0.8,1.1,1.8,1.1,2.8h-2.3
		c0-0.4-0.2-0.8-0.5-1.2c-0.3-0.3-0.7-0.4-1.1-0.4c-0.4,0-0.8,0.2-1.1,0.4c-0.3,0.3-0.4,0.7-0.4,1.1c0,0.7,0.6,1.4,1.9,1.8
		c0.4,0.1,0.7,0.2,0.9,0.3c0.9,0.3,1.6,0.8,2.2,1.5c0.5,0.7,0.7,1.6,0.7,2.5c0,1.1-0.4,2.2-1.2,3c-0.8,0.8-1.9,1.2-3.1,1.2
		c-1.1,0-2.2-0.4-3-1.3C893.1,316.6,892.6,315.4,892.6,314.2"/>
</g>
</svg>
