<?xml version="1.0" encoding="utf-8"?>
<!-- Generator: Adobe Illustrator 19.0.0, SVG Export Plug-In . SVG Version: 6.00 Build 0)  -->
<svg version="1.1" xmlns="http://www.w3.org/2000/svg" xmlns:xlink="http://www.w3.org/1999/xlink" x="0px" y="0px"
	 viewBox="659.2 215.7 130 130" style="enable-background:new 659.2 215.7 130 130;" xml:space="preserve">
<style type="text/css">
	.st0{display:none;}
	.st1{fill:#CFCFCF;}
</style>
<g id="Capa_1" class="st0">
</g>
<g id="Capa_2" class="st0">
</g>
<g id="Capa_3">
	<path class="st1" d="M716.5,298.8c-2.8-2-6.2-3-9.7-2.8c-1.9,0.1-3.7,1-4.7,2.6c-1.5-2.6-4.4-4.1-8.9-4.1
		c-7.3,0.1-14.5,3.4-20.2,3.4c-5.5,0-9.5-3.4-9.3-9.6c0.2-10.7,9.3-20.4,16.1-24.7c3.9-2.5,7.2-3.2,9.3-3c1.7,0.3,2.9,1.8,2.6,3.5
		c-0.1,0.4-0.2,0.7-0.4,1.1c-1.7,3.9-4.1,3.6-4,1.7c0.1-1,0.6-1.9,1.5-2.4c0.4-0.2,0.9-0.3,1.4-0.3c0.3-0.3,0.6-2.4-2.2-1.7
		s-6.1,3.4-9.3,7c-3.2,3.5-8.2,10.2-9.4,17.3c-0.6,3.3-0.2,9.2,7.5,9.1c6.5-0.1,16.2-4.4,25.1-4.3c3.1,0,6.1,0.8,8.8,2.4
		C712.7,295.4,715.5,297.4,716.5,298.8 M718.6,279.4h1.3c0,0-6.7,9.7-10.5,9.3c-2.1-0.2-1.5-2.9-1.5-2.9s-3,3.5-5.7,2.8
		c-2.5-0.6-0.9-4.8-0.9-4.8c-0.3,0.1-5.6,6.2-9.4,4.7c-3.9-1.5-1.9-6.6-1.1-8.1c0.6-1.3,1.3-2.5,1.3-2.5s-0.6,0.2-1,0.3
		s-0.9,0.2-0.9,0.2s-1.9,3-3,4.6c-1.1,1.5-6,6.7-8.8,5.7s-2.2-5-0.5-8.2c2.6-5.2,8.8-11.5,12.5-10.5c3.8,1,0.7,7.1,0.7,7.1
		s0.7,0.1,2.5-1.1c2.6-1.8,6-6.5,9.7-5.9c1.7,0.3,3.3,2,1.1,5.4c-0.7,1.1-1.9,2.1-2.8,1.1c-0.6-0.6-0.1-1.7,0.5-2.4
		c0.5-0.6,1.2-1,2-0.9c0,0,0.6-1.4-0.9-1.4c-1.3,0-4.4,2.9-6.2,5.9c-1.6,2.7-4.1,7.3-1.6,8.3c2.3,0.9,6.6-4.3,8.7-7
		c2-2.7,6.6-8.9,10.5-9.1c0.8,0,1.6,0.4,2.1,1.1l0.4-0.7h3.9c0,0-7.3,12.1-7.8,13.1c-0.4,0.7-1,2.3,0.6,1.4
		C715.1,283.8,718.6,279.4,718.6,279.4L718.6,279.4z M688.7,278.2c-0.7-0.2-1.4-0.5-2-0.9c-0.6-0.4-1.1-0.9-1.4-1.6
		c0-0.1-0.1,0-0.1,0c0,0.1-0.2,0.3-1.6,2.3s-3.4,6.2-1.5,6.9c1.2,0.5,3.3-1.7,4.4-3.1c0.8-1.1,1.6-2.3,2.3-3.5
		C688.8,278.2,688.7,278.2,688.7,278.2L688.7,278.2z M690.2,271.7c-1-0.8-3.6,1-3.6,2.9c0,1.9,2.3,2.4,2.6,2.4c0.1,0,0.3,0,0.4-0.1
		c0.3-0.5,0.5-1.1,0.7-1.7C690.7,274.2,691.1,272.4,690.2,271.7L690.2,271.7z M709.8,281.8c1.6-2.1,5.8-9.6,5.8-9.6
		c0-0.3-0.3-0.5-0.6-0.5c-0.6,0-1.6,0.2-3.6,2.6c-1.7,2-3.3,4.2-4.6,6.5c-1.2,2.2-1.8,3.8-1.1,4.2c0.2,0.1,0.5,0.1,0.7,0.1
		c0.8-0.3,1.4-0.8,1.9-1.5C708.9,283.1,709.3,282.5,709.8,281.8L709.8,281.8z M727.2,270.2h-3.7l-2.1,3.3h3.7L727.2,270.2z
		 M775.2,295.2c-0.7,0-1.3,0.6-1.3,1.3c0,0,0,0,0,0c0,0.4,0.1,0.7,0.4,1c0.5,0.5,1.4,0.5,1.9,0c0.3-0.3,0.4-0.6,0.4-1
		C776.5,295.8,775.9,295.2,775.2,295.2C775.2,295.2,775.2,295.2,775.2,295.2z M776.7,296.5c0,0.9-0.7,1.5-1.5,1.5
		c-0.9,0-1.5-0.7-1.5-1.5c0-0.8,0.7-1.5,1.5-1.5c0.4,0,0.8,0.2,1.1,0.5C776.6,295.7,776.7,296.1,776.7,296.5L776.7,296.5z
		 M775.6,296.2c0-0.1,0-0.2-0.1-0.2c-0.1-0.1-0.2-0.1-0.4-0.1h-0.3v0.6h0.3c0.1,0,0.2,0,0.3,0C775.5,296.4,775.6,296.3,775.6,296.2
		L775.6,296.2z M774.6,295.6h0.6c0.2,0,0.3,0,0.5,0.1c0.2,0.1,0.3,0.2,0.3,0.4c0,0.1-0.1,0.3-0.2,0.3c-0.1,0-0.2,0.1-0.2,0.1
		c0.1,0,0.2,0.1,0.3,0.2c0.1,0.1,0.1,0.2,0.1,0.3v0.1c0,0,0,0.1,0,0.1s0,0.1,0,0.1l0,0h-0.3v0c0,0,0,0,0,0v-0.1v-0.1
		c0-0.2,0-0.3-0.2-0.4c-0.1,0-0.2-0.1-0.3-0.1h-0.2v0.7h-0.3L774.6,295.6z M781.2,264.2c-2.7,1.7-6.5,3.3-10.1,3
		c-0.9,0.9-1.9,2-2.9,3.2c6.3,1.2,11.7-2.6,14.6-5.9c1.1-1.2,2-2.5,2.7-3.9C784.3,261.9,782.8,263.2,781.2,264.2L781.2,264.2z
		 M770.5,292.6c-0.5,0.8-1.1,2.4,0.6,1.4c2.1-1.2,5-5.7,5-5.7h1.3c-1.2,1.9-2.6,3.7-4.1,5.4c-2.1,2.3-4.7,4.5-6.5,4.3
		c-2.1-0.2-1.5-3-1.5-3s-3,3.2-5.1,3c-2.8-0.3-2-3.8-2-3.8s-3.2,3.9-5.4,3.8c-3.4-0.2-2.6-4.4-1.6-7.3c0.5-1.6,1-2.8,1-2.8
		s-0.3,0.1-1.1,0.2c-0.4,0.1-1.1,0.1-1.1,0.1c-0.8,1.4-1.6,2.7-2.6,4c-1.1,1.5-6,6.7-8.8,5.7c-2.6-1-1.8-5-0.2-8.2
		c2.2-4.7,8.5-11.4,12.2-10.5c3.8,0.9,0.1,7.8,0.1,7.8s0,0,0,0c0.2,0,0.5,0,0.7,0c0.5-0.1,0.9-0.2,1.4-0.4c2.2-4.6,4.9-9,8-13.1
		c4.2-5.2,12.5-14.1,15.8-12c0.8,0.5,0.4,2.4-0.6,4.6c-0.5,0.2-1,0.3-1.5,0.4c0.6-1,1.1-2.1,1.3-3.2c0.5-2.7-5.8,3-10.2,9.1
		c-2.7,3.7-5.1,7.5-7.2,11.6c0.8-0.5,1.6-1,2.3-1.6c2-1.7,3.9-3.4,5.7-5.3c1.7-1.8,3.3-3.6,4.8-5.6c0.5,0,0.9-0.1,1.4-0.1
		c-1.6,2.2-3.4,4.3-5.3,6.3c-1.8,1.8-3.7,3.7-5.4,5.2c-1.5,1.3-3.1,2.5-4.7,3.5c0,0-3.9,7.9-1.8,8.4c1.3,0.3,3.7-3.5,3.7-3.5
		c1.6-2.5,3.3-4.8,5.2-7.1c2.7-3,4.9-4.8,7.2-4.8c0.9,0.1,1.7,0.6,2.1,1.4l0.6-1h3.9C778.2,279.5,771.1,291.7,770.5,292.6
		L770.5,292.6z M748.8,287.8c-0.6-0.3-1.2-0.7-1.8-1.1c-0.5-0.5-1-1-1.3-1.6c0-0.1-0.1,0-0.1,0c-0.6,0.7-1.1,1.4-1.6,2.2
		c-1.4,2-3.5,6.2-1.6,6.9c1.2,0.5,3.3-1.7,4.4-3.1c0.8-1,1.4-2,2-3.1C748.9,287.8,748.9,287.8,748.8,287.8L748.8,287.8z
		 M750.8,284.4c0.4-0.9,0.8-2.8-0.1-3.5c-1-0.8-3.6,1-3.6,2.8c0.1,1.3,1,2.5,2.3,2.8c0.3,0.1,0.3,0.1,0.5-0.1
		C750.1,285.8,750.5,285.1,750.8,284.4L750.8,284.4z M772.9,281.8c0-0.1,0.1-0.2,0.1-0.3c0-0.3-0.3-0.5-0.6-0.5
		c-0.6,0-1.4,0.1-3.5,2.4c-1.8,1.9-3.3,4.1-4.5,6.4c-1.2,2.2-1.7,3.9-1,4.3c0.2,0.1,0.5,0.1,0.7,0.1c0.5-0.1,1-0.6,1.8-1.5
		c0.4-0.4,0.8-1.1,1.3-1.8C768.6,289.1,772.2,283,772.9,281.8z M781.2,264.2c-2.7,1.7-6.5,3.3-10.1,3c-0.9,0.9-1.9,2-2.9,3.2
		c6.3,1.2,11.7-2.6,14.6-5.9c1.1-1.2,2-2.5,2.7-3.9C784.3,261.9,782.8,263.2,781.2,264.2z M763.6,268.7c-3-1.5-5.1-3.4-7.4-4.5
		c-2.2-1.1-3.5-1.6-5.3-1.3c-0.2,0-0.5,0.1-0.7,0.2c0,0,0.9,3-2.7,8.2c-3.6,5.2-6.9,5.2-7.8,3.7c-1-1.5,0.3-4.6,2.4-7.3
		c1.7-2,3.8-3.8,6-5.2c0,0-1.2-0.7-4.3,1c-5.1,3.2-9.4,7.4-12.7,12.3c-4.7,6.7-5.6,10.4-6.3,13.3s-0.1,6,3.2,6c3.2,0,7-4.9,8-6.6
		c2-3.2,3.2-8,0.6-7.4c-1.3,0.3-2.4,1.8-3.1,3.2c-0.4,0.9-0.7,1.8-1,2.8c-0.9,0.4-1.8,0.9-2.6,1.5c-0.9,0.7-1.7,1.4-2.5,2.2
		c0.2-2.1,0.8-4.2,1.9-6.1c1.8-3.7,5.2-5.5,7.2-5.6c1.7-0.1,4,1.3,2.1,6.7s-7.5,12-13.4,12.1c-5.5,0.1-9-6.9-1.4-19
		c8.4-13.4,18.3-17.6,21.5-18s4.2,0.9,4.2,0.9c1.9-0.8,4-1.1,6.1-1c3.9,0.3,6.9,3,10.9,5C765.5,266.7,764.5,267.8,763.6,268.7
		L763.6,268.7z M749.1,263.5c-1.9,0.9-3.6,2.2-4.9,3.8c-2.7,2.9-4.2,6.2-3.1,7.1c0.4,0.3,1.5,0.4,3.3-1.3c1.7-1.5,3-3.3,3.9-5.4
		C749.4,264.8,749.1,263.5,749.1,263.5L749.1,263.5z"/>
</g>
<g id="Capa_4" class="st0">
</g>
<g id="Capa_5" class="st0">
</g>
</svg>
