<?xml version="1.0" encoding="utf-8"?>
<!-- Generator: Adobe Illustrator 19.0.0, SVG Export Plug-In . SVG Version: 6.00 Build 0)  -->
<svg version="1.1" xmlns="http://www.w3.org/2000/svg" xmlns:xlink="http://www.w3.org/1999/xlink" x="0px" y="0px"
	 viewBox="659.2 215.7 130 130" style="enable-background:new 659.2 215.7 130 130;" xml:space="preserve">
<style type="text/css">
	.st0{display:none;}
	.st1{fill:#CFCFCF;}
</style>
<g id="Capa_1" class="st0">
</g>
<g id="Capa_2" class="st0">
</g>
<g id="Capa_3" class="st0">
</g>
<g id="Capa_4" class="st0">
</g>
<g id="Capa_5">
	<g transform="translate(1130.294 3517.306)">
		<path class="st1" d="M-438.5-3226.1c-4.1-0.2-7.5,3-7.7,7c0,0.2,0,0.5,0,0.7c0,4.6,3.1,7.8,7.6,7.8c4.5,0,7.6-3.2,7.6-7.8
			c0.2-4-2.9-7.5-6.9-7.7C-438.1-3226.1-438.3-3226.1-438.5-3226.1 M-438.5-3223.6c2.4,0,4.7,1.8,4.7,5.2c0,3.1-2,5.3-4.8,5.3
			c-2.7,0-4.7-2.2-4.7-5.3C-443.3-3221.8-440.9-3223.6-438.5-3223.6L-438.5-3223.6z M-424-3213.2h-1.4l0-18.5c0-0.6-0.3-0.9-1-0.9
			h-3.3c-0.3,0-0.6,0.2-0.6,0.5c0,0,0,0,0,0.1v1.3c0,0.3,0.2,0.5,0.5,0.6c0,0,0,0,0.1,0h1.4l0,17h-1.5c-0.3,0-0.6,0.2-0.6,0.5
			c0,0,0,0,0,0.1v1.3c0,0.3,0.2,0.5,0.5,0.6c0,0,0,0,0.1,0l5.7,0c0.3,0,0.6-0.2,0.6-0.5c0,0,0,0,0-0.1v-1.3
			C-423.4-3212.9-423.6-3213.2-424-3213.2C-423.9-3213.2-424-3213.2-424-3213.2L-424-3213.2z M-396.1-3213.1h-1.5l0-7.5
			c0-3.3-2-5.4-5.2-5.4c-1.9-0.1-3.7,0.8-4.8,2.3c-0.9-1.5-2.7-2.4-4.5-2.3c-1.8-0.1-3.6,0.8-4.7,2.2l0-0.9c0-1-0.6-1.1-1.1-1.1
			l-2.9,0c-0.3,0-0.6,0.2-0.6,0.5c0,0,0,0,0,0.1v1.3c0,0.3,0.2,0.5,0.5,0.6c0,0,0,0,0.1,0h1.5l0,10.3h-1.5c-0.3,0-0.6,0.2-0.6,0.5
			c0,0,0,0,0,0.1v1.3c0,0.3,0.2,0.5,0.5,0.6c0,0,0,0,0.1,0l5.6,0c0.3,0,0.5-0.2,0.6-0.5c0,0,0,0,0-0.1v-1.3c0-0.3-0.2-0.5-0.5-0.6
			c0,0-0.1,0-0.1,0h-1.3l0-7.9c0.7-1.5,2.1-2.5,3.8-2.4c2,0,3.1,1.2,3.1,3.5l0,6.9h-1.4c-0.3,0-0.6,0.2-0.6,0.5c0,0,0,0.1,0,0.1v1.3
			c0,0.3,0.2,0.5,0.5,0.6c0,0,0,0,0.1,0l5.7,0c0.3,0,0.5-0.2,0.6-0.5c0,0,0,0,0-0.1v-1.3c0-0.3-0.2-0.5-0.5-0.6c0,0-0.1,0-0.1,0
			h-1.5l0-7.3c0-0.4-0.1-0.8-0.2-1.2c0.7-1.2,2.1-1.9,3.5-1.9c2.5,0,3.1,1.9,3.1,3.5l0,7.9c0,1,0.5,1.4,1.5,1.5h2.8
			c0.3,0,0.6-0.2,0.6-0.5c0,0,0,0,0-0.1v-1.3C-395.5-3212.9-395.7-3213.1-396.1-3213.1C-396.1-3213.1-396.1-3213.1-396.1-3213.1
			L-396.1-3213.1z M-381.2-3215.3c-0.1-0.1-0.2-0.1-0.4-0.1c-0.2,0-0.4,0.1-0.5,0.3c-1.1,1.4-2.8,2.2-4.6,2.2
			c-2.6,0-4.7-2.2-4.7-4.8l10.5,0c0.3,0,0.6-0.2,0.6-0.5c0,0,0,0,0-0.1c0.2-2.1-0.5-4.2-1.9-5.8c-1.3-1.3-3.1-1.9-4.9-1.9
			c-3.6,0-7.2,2.6-7.3,7.7c0,4.6,3.1,7.8,7.5,7.8c2.6,0.1,5-1.1,6.5-3.2c0.2-0.3,0.1-0.6-0.1-0.8c0,0,0,0,0,0L-381.2-3215.3z
			 M-391.2-3220c0.2-2.2,2.1-3.8,4.3-3.7c2-0.1,3.8,1.4,3.9,3.4c0,0.1,0,0.2,0,0.3L-391.2-3220z M-362.7-3213.1h-1.5l0-7.5
			c0-3.3-2.1-5.4-5.3-5.4c-1.8-0.1-3.6,0.8-4.7,2.2l0-1.5c0-0.3-0.2-0.5-0.5-0.6c0,0,0,0-0.1,0l-3.5,0c-0.3,0-0.6,0.2-0.6,0.5
			c0,0,0,0,0,0.1v1.3c0,0.3,0.2,0.5,0.5,0.6c0,0,0,0,0.1,0h1.4l0,10.3h-1.4c-0.3,0-0.6,0.2-0.6,0.5c0,0,0,0.1,0,0.1v1.3
			c0,0.3,0.2,0.5,0.5,0.6c0,0,0,0,0.1,0l5.7,0c0.3,0,0.6-0.2,0.6-0.5c0,0,0,0,0-0.1v-1.3c0-0.3-0.2-0.5-0.5-0.6c0,0,0,0-0.1,0h-1.4
			l0-8l0,0c0.7-1.5,2.2-2.4,3.8-2.4c2,0,3.1,1.2,3.1,3.5l0,7.9c0,1,0.5,1.5,1.5,1.5h2.8c0.3,0,0.6-0.2,0.6-0.5c0,0,0,0,0-0.1v-1.3
			C-362.1-3212.8-362.3-3213.1-362.7-3213.1C-362.7-3213.1-362.7-3213.1-362.7-3213.1L-362.7-3213.1z M-346-3213.1h-1.5l0-6.7
			c0-4.1-2.1-6.2-6.5-6.2c-4.3,0-5.9,1.9-5.9,2c-0.2,0.1-0.3,0.4-0.2,0.7c0,0,0,0.1,0.1,0.1l0.8,1c0.2,0.2,0.4,0.3,0.7,0.2
			c0.1,0,0.2-0.1,0.2-0.1c1.2-0.9,2.7-1.3,4.2-1.2c2.5,0,3.7,1.1,3.7,3.5v0.2h-2.3c-5.4,0-8.2,1.7-8.2,4.9c0,2.6,2,4.3,5.1,4.4
			c2.2,0.1,4.3-0.9,5.7-2.7v1c0,1,0.5,1.4,1.5,1.5h2.6c0.3,0,0.5-0.2,0.6-0.5c0,0,0-0.1,0-0.1v-1.3c0-0.3-0.2-0.5-0.4-0.6
			C-345.9-3213.1-345.9-3213.1-346-3213.1L-346-3213.1z M-350.3-3217.5v2.2c-1.1,1.5-2.8,2.4-4.7,2.4c-1.7,0-2.9-0.9-2.9-2.2
			c0-1.7,1.6-2.4,5.4-2.4L-350.3-3217.5z M-412-3279.3c0.5-0.4,1.1-0.6,1.8-0.5l12.9,3.5l3.2,0.9c0.6,0.2,1.1,0.7,1.3,1.3l4.3,16.1
			c0.1,0.6,0,1.3-0.5,1.8l-11.8,11.8c-0.5,0.4-1.1,0.6-1.8,0.5l-16.1-4.3c-0.6-0.2-1.1-0.7-1.3-1.3l-4.3-16.1
			c-0.1-0.6,0-1.3,0.5-1.8L-412-3279.3z M-411.8-3264.7c0-0.2,0.1-0.4,0.3-0.5l3.9-2.2l1-0.6c0.2-0.1,0.4-0.1,0.6,0l4.8,2.8
			c0.2,0.1,0.3,0.3,0.3,0.5l0,5.6c0,0.2-0.1,0.4-0.3,0.5l-4.8,2.8c-0.2,0.1-0.4,0.1-0.6,0l-4.8-2.8c-0.2-0.1-0.3-0.3-0.3-0.5
			L-411.8-3264.7z M-411.9-3272.7c-0.4,0-0.8,0.3-1.1,0.6l-4.5,7.7l-1.1,1.9c-0.2,0.4-0.2,0.8,0,1.2l5.6,9.6
			c0.2,0.4,0.6,0.6,1.1,0.6l11.1,0c0.4,0,0.8-0.2,1.1-0.6l5.6-9.6c0.2-0.4,0.2-0.8,0-1.2l-5.6-9.6c-0.2-0.4-0.6-0.6-1.1-0.6
			L-411.9-3272.7z M-405.1-3286.3c-0.8-0.4-1.7-0.4-2.4,0l-15.5,8.9l-3.8,2.2c-0.7,0.5-1.2,1.3-1.2,2.1l0,22.3
			c0,0.9,0.5,1.6,1.2,2.1l19.3,11.2c0.8,0.4,1.7,0.4,2.4,0l19.3-11.1c0.7-0.5,1.2-1.3,1.2-2.1l0-22.3c0-0.9-0.5-1.6-1.2-2.1
			L-405.1-3286.3z M-447.7-3216.6l-1.2-0.8c-0.1-0.1-0.2-0.1-0.3-0.1c-0.2,0-0.4,0.2-0.5,0.4c-0.8,1.4-2.8,3.7-7.1,3.7
			c-3.5,0-7.3-2.6-7.3-8.3c0-5.7,3.8-8.2,7.2-8.2c3.7,0,6.1,2.7,6.1,4.1v0.3c0,0.3,0.2,0.6,0.5,0.6c0,0,0,0,0.1,0h1.9
			c0.3,0,0.6-0.2,0.6-0.5c0,0,0,0,0-0.1l0-6.5c0-0.3-0.2-0.5-0.5-0.6c0,0,0,0-0.1,0h-1.7c-0.2,0-0.3,0.1-0.4,0.2
			c-0.1,0.1-0.1,0.2-0.1,0.4l0,2c-1.6-1.9-4-2.9-6.5-2.8c-6.7,0-10.2,5.5-10.2,11c0,6.5,4.3,11.3,10.4,11.3c1.1,0,6.9-0.2,9.5-5.1
			C-447.4-3216-447.5-3216.4-447.7-3216.6C-447.7-3216.6-447.7-3216.6-447.7-3216.6L-447.7-3216.6z"/>
		<path class="st1" d="M-386.2-3194.4c-0.8,0.4-1.8,0.5-2.7,0.5c-2.5,0-3.8-1-3.8-4.3c0-2.8,1.2-4.3,3.6-4.3s3.3,1.3,3.3,3.6
			c0,0.3,0,0.5-0.1,0.8h-5.7c0,2.6,1,3.3,2.7,3.3c0.8,0,1.6-0.1,2.4-0.4C-386.4-3195.3-386.2-3194.4-386.2-3194.4 M-391.5-3199.1
			l4.5,0c-0.1-1.6-0.8-2.4-2.2-2.4C-390.3-3201.6-391.3-3200.9-391.5-3199.1z M-382.1-3196.5c-0.2,0.4-0.2,0.9,0,1.3h3
			c2.2,0,2.7,1.5,2.5,2.7c-0.3,1.5-1.7,2.6-4.3,2.6c-1.8,0-3.3-0.8-3.3-2.3c-0.1-1,0.5-1.8,1.3-2.3c-0.4-0.3-0.5-0.8-0.4-1.3
			c0.1-0.4,0.3-0.7,0.5-0.9c-0.9-0.5-1.5-1.5-1.4-2.6c0-2.3,1.2-3.3,3.6-3.3c0.7,0,1.3,0.1,1.9,0.4l1.4-1.8l0.9,1l-1.7,1.4
			c0.4,0.6,0.7,1.2,0.7,2c0,2.3-1.2,3.3-3.6,3.3C-381.4-3196.4-381.8-3196.4-382.1-3196.5L-382.1-3196.5z M-383.1-3192.3
			c0,0.6,0.4,1.3,2.4,1.3c1.2,0,2.6-0.5,2.8-1.4s-0.2-1.8-1.5-1.8h-3C-382.9-3193.7-383.2-3193-383.1-3192.3L-383.1-3192.3z
			 M-381-3197.3c1.7,0,2.3-0.8,2.3-2.3c0-1.3-0.4-2-2.1-2c-1.7,0-2.3,0.8-2.3,2.3C-383.1-3198-382.7-3197.3-381-3197.3L-381-3197.3z
			 M-369.6-3195.5v-6.9h1.2l0,8.3h-1.2v-0.7h-0.1c-0.8,0.5-1.7,0.8-2.7,0.8c-1.8,0-2.8-1-2.8-2.9l0-5.6h1.2v5.1
			c0,1.3,0.4,2.4,1.8,2.4C-371.2-3194.9-370.4-3195.1-369.6-3195.5L-369.6-3195.5z M-361.7-3201.4c-0.9,0-1.9,0.1-2.8,0.4l0,6.9
			h-1.2l0-8.3h1.2v0.7h0.1c0.8-0.5,1.7-0.8,2.7-0.8L-361.7-3201.4z M-356.7-3202.6c2.3,0,3.5,1.2,3.5,4.2s-1,4.5-3.8,4.5
			c-2.3,0-3.5-1.2-3.5-4.2C-360.6-3201-359.6-3202.6-356.7-3202.6L-356.7-3202.6z M-357-3194.8c2,0,2.6-1.4,2.6-3.6
			c0-1.9-0.4-3.3-2.4-3.3s-2.6,1.4-2.6,3.6C-359.4-3196.2-359-3194.8-357-3194.8L-357-3194.8z M-351.5-3195.3
			c0.7,0.2,1.5,0.4,2.3,0.4c1.2,0,2.1-0.4,2.1-1.4c0-1-1-1.3-2.2-1.6c-1.3-0.3-2.4-0.8-2.4-2.3c0-1.7,1.3-2.3,3.2-2.3
			c0.7,0,1.5,0.2,2.2,0.4l-0.2,1c-0.7-0.3-1.4-0.4-2.1-0.4c-1.2,0-1.8,0.4-1.8,1.3c0,1,0.7,1.1,2.1,1.5c1.3,0.3,2.5,0.7,2.5,2.4
			c0,1.8-1.5,2.5-3.3,2.5c-0.8,0-1.6-0.2-2.4-0.4L-351.5-3195.3z M-400.9-3195.5c1,0.4,2,0.6,3,0.6c1.6,0,2.5-0.8,2.5-2
			c0-1.4-1.2-1.9-2.6-2.3c-1.9-0.5-3.2-1.2-3.2-3.1c0-1.9,1.6-3,3.7-3c1,0,2,0.2,2.9,0.5l-0.3,1.1c-0.8-0.3-1.7-0.5-2.6-0.5
			c-1.3,0-2.4,0.6-2.4,1.7c0,1.4,1.2,1.8,2.6,2.2c2,0.6,3.2,1.5,3.2,3.2c0,2.1-1.6,3.3-3.8,3.3c-1.1,0-2.3-0.2-3.3-0.7
			L-400.9-3195.5z"/>
	</g>
</g>
</svg>
