<svg xmlns="http://www.w3.org/2000/svg" width="27.932" height="51.763" viewBox="0 0 27.932 51.763"><defs><style>.a{fill:#58c8f5;}</style></defs><g transform="translate(-182 -892.068)"><g transform="translate(182 892.068)"><path class="a" d="M19.966,1A13.965,13.965,0,0,0,6,14.966V28.932a13.966,13.966,0,1,0,27.932,0V14.966A13.965,13.965,0,0,0,19.966,1ZM30.441,28.932a10.475,10.475,0,0,1-20.949,0V14.966a10.475,10.475,0,1,1,20.949,0Z" transform="translate(-6 -1)"/><path class="a" d="M13,4.75A1.746,1.746,0,0,0,11.25,6.5v9.311a1.746,1.746,0,1,0,3.492,0V6.5A1.746,1.746,0,0,0,13,4.75Z" transform="translate(0.97 3.979)"/><path class="a" d="M24.924,19.981l-7.281,4.16-7.281-4.16A1.745,1.745,0,1,0,8.63,23.011l8.147,4.655a1.525,1.525,0,0,0,.2.068,1.761,1.761,0,0,0,.34.112,2.325,2.325,0,0,0,.656,0,1.761,1.761,0,0,0,.34-.112,1.525,1.525,0,0,0,.2-.068l8.147-4.655a1.745,1.745,0,1,0-1.732-3.031Z" transform="translate(-3.677 23.894)"/></g></g></svg>