<svg xmlns="http://www.w3.org/2000/svg" width="122" height="65.383" viewBox="0 0 122 65.383"><defs><style>.a{fill:#243d56;}.b{fill:#ed3349;}.c{fill:#72cff5;}.d{fill:#f37923;}.e{fill:#f1b71b;}</style></defs><g transform="translate(-140 -97.987)"><g transform="translate(140 97.987)"><path class="a" d="M330.32,436.211a7.021,7.021,0,0,1-2.473,1.115,12.369,12.369,0,0,1-3.045.373q-4.248,0-6.525-2.147t-2.276-6.3V409.2h6.832v5.12h5.823v5.255h-5.823v9.589a3.269,3.269,0,0,0,.744,2.3,2.765,2.765,0,0,0,2.145.81,4.689,4.689,0,0,0,2.8-.877Z" transform="translate(-316.001 -372.316)"/><path class="a" d="M575.611,435.078v23.558h-6.525v-2.714q-2.541,3.064-7.357,3.064a12.248,12.248,0,0,1-6.021-1.487,10.673,10.673,0,0,1-4.226-4.249,14.108,14.108,0,0,1,0-12.787,10.668,10.668,0,0,1,4.226-4.247,12.249,12.249,0,0,1,6.021-1.488,8.958,8.958,0,0,1,7.05,2.846v-2.5ZM567.2,451.609a7.467,7.467,0,0,0,0-9.5,6.131,6.131,0,0,0-8.627,0,7.462,7.462,0,0,0,0,9.5,6.131,6.131,0,0,0,8.627,0" transform="translate(-511.065 -393.605)"/><path class="a" d="M751.346,383.1v32.49h-6.525v-2.714q-2.541,3.064-7.357,3.064a12.239,12.239,0,0,1-6.021-1.487,10.661,10.661,0,0,1-4.226-4.249,14.108,14.108,0,0,1,0-12.787,10.656,10.656,0,0,1,4.226-4.247,12.239,12.239,0,0,1,6.021-1.488,8.963,8.963,0,0,1,7.05,2.846V383.1Zm-8.409,25.463a7.461,7.461,0,0,0,0-9.5,6.129,6.129,0,0,0-8.625,0,7.462,7.462,0,0,0,0,9.5,6.129,6.129,0,0,0,8.625,0" transform="translate(-657.59 -350.556)"/><path class="a" d="M917.766,452.972a9.06,9.06,0,0,1-3.263.545,8.05,8.05,0,0,1-3.92-.877,5.221,5.221,0,0,1-2.342-2.625l17.428-3.372a12,12,0,0,0-1.642-6.372,10.952,10.952,0,0,0-4.4-4.116,13.177,13.177,0,0,0-6.131-1.422,13.317,13.317,0,0,0-6.457,1.554,11.5,11.5,0,0,0-4.512,4.334,12.036,12.036,0,0,0-1.642,6.239,11.882,11.882,0,0,0,1.665,6.264,11.406,11.406,0,0,0,4.728,4.312,15.374,15.374,0,0,0,7.052,1.555q6.392,0,9.721-3.81l-3.636-3.941a7.932,7.932,0,0,1-2.649,1.731m-8.474-11.409a5.606,5.606,0,0,1,4.2-1.664,5.9,5.9,0,0,1,3.592,1.1,5.164,5.164,0,0,1,1.971,2.933l-11.473,2.234a6.61,6.61,0,0,1,1.706-4.6" transform="translate(-803.67 -393.609)"/><path class="b" d="M439.763,440H420.949V458.81h6.1V446.1h12.712Z" transform="translate(-403.505 -397.997)"/><path class="c" d="M936.209,385.5a3.807,3.807,0,0,1-3.54-2.409h-4.387a8.049,8.049,0,0,0,15.855,0h-4.389a3.806,3.806,0,0,1-3.54,2.409" transform="translate(-826.514 -350.551)"/><path class="a" d="M320.17,261.937a12.17,12.17,0,0,1-4.17-1.974l1.774-3.372a12.754,12.754,0,0,0,3.771,1.776,15.52,15.52,0,0,0,4.479.664q5.59,0,5.59-3.194a2.072,2.072,0,0,0-.754-1.686,4.787,4.787,0,0,0-1.886-.909q-1.131-.286-3.215-.643a31.3,31.3,0,0,1-4.636-1.02,7.124,7.124,0,0,1-3.083-1.953,5.423,5.423,0,0,1-1.287-3.858,6.032,6.032,0,0,1,2.662-5.125,11.926,11.926,0,0,1,7.141-1.928,19.644,19.644,0,0,1,4.7.575,12.686,12.686,0,0,1,3.859,1.554l-1.819,3.37a12.241,12.241,0,0,0-6.787-1.864,7.847,7.847,0,0,0-4.126.888,2.678,2.678,0,0,0-1.42,2.352,2.241,2.241,0,0,0,.8,1.819,5.064,5.064,0,0,0,1.974.976q1.176.31,3.307.71a36.042,36.042,0,0,1,4.59,1.042,6.869,6.869,0,0,1,2.994,1.887,5.246,5.246,0,0,1,1.243,3.725,5.878,5.878,0,0,1-2.729,5.079,12.881,12.881,0,0,1-7.429,1.884,19.7,19.7,0,0,1-5.546-.775" transform="translate(-316 -230.172)"/><rect class="a" width="4.204" height="23.999" transform="translate(23.233 8.543)"/><rect class="d" width="4.293" height="4.291" transform="translate(23.188 0.049)"/><path class="a" d="M513.58,238.715a12,12,0,1,0,12,12,12,12,0,0,0-12-12m0,19.343a7.345,7.345,0,1,1,7.343-7.345,7.344,7.344,0,0,1-7.343,7.345" transform="translate(-470.736 -230.172)"/><rect class="e" width="15.854" height="4.387" transform="translate(34.917)"/><path class="a" d="M685.707,262.712V248.442a9.728,9.728,0,0,0-9.728-9.727H663.147v24h4.305V243.02H674.6a6.8,6.8,0,0,1,6.8,6.8v12.887Z" transform="translate(-605.447 -230.172)"/></g></g></svg>