<svg xmlns="http://www.w3.org/2000/svg" width="122" height="65.383" viewBox="0 0 122 65.383"><defs><style>.a{fill:#fff;}</style></defs><g transform="translate(-104.575 -98.465)"><path class="a" d="M118.895,165.567a7.019,7.019,0,0,1-2.473,1.115,12.38,12.38,0,0,1-3.045.374,9.156,9.156,0,0,1-6.525-2.147q-2.277-2.144-2.276-6.3V138.552h6.832v5.121h5.823v5.254h-5.823v9.589a3.268,3.268,0,0,0,.744,2.3,2.765,2.765,0,0,0,2.145.811,4.688,4.688,0,0,0,2.8-.877Z" transform="translate(0 -3.208)"/><path class="a" d="M172.5,143.516v23.557h-6.525V164.36q-2.541,3.064-7.356,3.064a12.245,12.245,0,0,1-6.021-1.487,10.677,10.677,0,0,1-4.226-4.248,14.111,14.111,0,0,1,0-12.788,10.672,10.672,0,0,1,4.226-4.247,12.246,12.246,0,0,1,6.021-1.489,8.959,8.959,0,0,1,7.05,2.846v-2.5Zm-8.408,16.53a7.466,7.466,0,0,0,0-9.5,6.129,6.129,0,0,0-8.627,0,7.463,7.463,0,0,0,0,9.5,6.129,6.129,0,0,0,8.627,0" transform="translate(-3.382 -3.577)"/><path class="a" d="M204.254,133.837v32.489h-6.525v-2.713q-2.541,3.064-7.356,3.064a12.235,12.235,0,0,1-6.021-1.487,10.659,10.659,0,0,1-4.226-4.248,14.111,14.111,0,0,1,0-12.788,10.654,10.654,0,0,1,4.226-4.247,12.236,12.236,0,0,1,6.021-1.489,8.965,8.965,0,0,1,7.05,2.846V133.837Zm-8.41,25.462a7.46,7.46,0,0,0,0-9.5,6.127,6.127,0,0,0-8.625,0,7.46,7.46,0,0,0,0,9.5,6.127,6.127,0,0,0,8.625,0" transform="translate(-5.923 -2.83)"/><path class="a" d="M227.127,161.4a9.06,9.06,0,0,1-3.262.546,8.056,8.056,0,0,1-3.92-.877,5.225,5.225,0,0,1-2.342-2.625l17.428-3.373a12.008,12.008,0,0,0-1.641-6.372,10.949,10.949,0,0,0-4.4-4.116,13.173,13.173,0,0,0-6.131-1.422,13.308,13.308,0,0,0-6.457,1.555,11.494,11.494,0,0,0-4.513,4.334,12.044,12.044,0,0,0-1.641,6.239,11.878,11.878,0,0,0,1.664,6.263,11.406,11.406,0,0,0,4.728,4.312,15.38,15.38,0,0,0,7.052,1.555q6.392,0,9.721-3.81l-3.636-3.94a7.93,7.93,0,0,1-2.649,1.73M218.653,150a5.606,5.606,0,0,1,4.2-1.664,5.9,5.9,0,0,1,3.592,1.1,5.169,5.169,0,0,1,1.972,2.934l-11.473,2.234a6.61,6.61,0,0,1,1.706-4.6" transform="translate(-8.455 -3.577)"/><path class="a" d="M142.35,144.117H123.536v18.814h6.1V150.218H142.35Z" transform="translate(-1.517 -3.653)"/><path class="a" d="M223.122,136.245a3.807,3.807,0,0,1-3.539-2.409H215.2a8.048,8.048,0,0,0,15.854,0h-4.388a3.807,3.807,0,0,1-3.54,2.409" transform="translate(-8.851 -2.83)"/><path class="a" d="M108.745,130.973a12.166,12.166,0,0,1-4.17-1.974l1.775-3.372a12.765,12.765,0,0,0,3.771,1.776,15.54,15.54,0,0,0,4.479.663q5.59,0,5.59-3.193a2.072,2.072,0,0,0-.754-1.686,4.782,4.782,0,0,0-1.885-.909q-1.132-.287-3.215-.643a31.383,31.383,0,0,1-4.636-1.02,7.131,7.131,0,0,1-3.083-1.953,5.421,5.421,0,0,1-1.287-3.857,6.032,6.032,0,0,1,2.662-5.125,11.924,11.924,0,0,1,7.141-1.927,19.661,19.661,0,0,1,4.7.575,12.683,12.683,0,0,1,3.859,1.554l-1.819,3.37a12.241,12.241,0,0,0-6.787-1.864,7.841,7.841,0,0,0-4.125.888,2.677,2.677,0,0,0-1.42,2.351,2.241,2.241,0,0,0,.8,1.819,5.054,5.054,0,0,0,1.974.976q1.176.31,3.306.71a36.046,36.046,0,0,1,4.591,1.041,6.871,6.871,0,0,1,2.994,1.887,5.249,5.249,0,0,1,1.243,3.726,5.879,5.879,0,0,1-2.73,5.079,12.882,12.882,0,0,1-7.429,1.883,19.714,19.714,0,0,1-5.546-.775" transform="translate(0 -0.743)"/><rect class="a" width="4.204" height="23.999" transform="translate(127.809 107.008)"/><rect class="a" width="4.293" height="4.291" transform="translate(127.763 98.514)"/><path class="a" d="M150.1,107.752a12,12,0,1,0,12,12,12,12,0,0,0-12-12m0,19.343a7.345,7.345,0,1,1,7.343-7.345,7.344,7.344,0,0,1-7.343,7.345" transform="translate(-2.683 -0.743)"/><rect class="a" width="15.854" height="4.387" transform="translate(139.492 98.465)"/><path class="a" d="M189.854,131.748V117.479a9.727,9.727,0,0,0-9.727-9.727H167.294v24H171.6V112.057h7.145a6.8,6.8,0,0,1,6.8,6.805v12.886Z" transform="translate(-5.019 -0.743)"/></g></svg>