<svg xmlns="http://www.w3.org/2000/svg" xmlns:xlink="http://www.w3.org/1999/xlink" width="24.009" height="48" viewBox="0 0 24.009 48"><defs><style>.a{fill:#fff;}.b,.d{fill:#e61938;}.c{clip-path:url(#a);}.d{font-size:20px;font-family:Sion-Medium, Sion;font-weight:500;letter-spacing:0.1em;}</style><clipPath id="a"><rect class="a" width="24" height="12" transform="translate(1756 103)"/></clipPath></defs><g transform="translate(-3.996 -2)"><path class="b" d="M26,8.9A1,1,0,0,0,25,8H22A6,6,0,0,0,10,8H7a1,1,0,0,0-1,.9l-2,20A1.011,1.011,0,0,0,5,30H27a1.011,1.011,0,0,0,1-1.1ZM16,4a4,4,0,0,1,4,4H12A4,4,0,0,1,16,4ZM7.91,10H10v2a1,1,0,0,0,2,0V10h8v2a1,1,0,0,0,2,0V10h2.09l1.4,14h-19ZM6.11,28l.2-2H25.69l.2,2Z"/></g><g class="c" transform="translate(-1756 -67)"><text class="d" transform="translate(1775 204) rotate(-90)"><tspan x="0" y="0">TIENDA</tspan></text></g></svg>