<svg xmlns="http://www.w3.org/2000/svg" width="35.994" height="36" viewBox="0 0 35.994 36"><defs><style>.a{fill:#fff;}</style></defs><g transform="translate(35.994) rotate(90)"><path class="a" d="M47.605,13.4a2.925,2.925,0,0,0-4.078,0L30.478,26.452,17.381,13.4A2.884,2.884,0,0,0,13.3,17.481L26.4,30.53l-13.049,13.1a2.925,2.925,0,0,0,0,4.078,2.842,2.842,0,0,0,2.015.864,2.762,2.762,0,0,0,2.015-.864l13.1-13.1,13.1,13.1a2.842,2.842,0,0,0,2.015.864,2.762,2.762,0,0,0,2.015-.864,2.925,2.925,0,0,0,0-4.078L34.556,30.53l13.1-13.1A2.824,2.824,0,0,0,47.605,13.4Z" transform="translate(-12.475 -12.575)"/></g></svg>